<?xml version="1.0" encoding="utf-8"?>
<!-- Generator: Adobe Illustrator 18.1.1, SVG Export Plug-In . SVG Version: 6.00 Build 0)  -->
<svg version="1.1" id="Layer_1" xmlns="http://www.w3.org/2000/svg" xmlns:xlink="http://www.w3.org/1999/xlink" x="0px" y="0px"
	 viewBox="850 -38 2312 868" enable-background="new 850 -38 2312 868" xml:space="preserve">
<g id="text_ninja_cross">
	<g>
		<defs>
			<ellipse id="SVGID_2_" cx="2404.6" cy="165.5" rx="122.3" ry="138.1"/>
		</defs>
		<clipPath id="SVGID_4_">
			<use xlink:href="#SVGID_2_"  overflow="visible"/>
		</clipPath>
		<path clip-path="url(#SVGID_4_)" fill="#F0C61D" d="M2272.3,50.1c0,0,79.4,59.3,151.9,156.8c41.3,55.6,64.2,110.5,64.2,110.5
			l62.7-49.6c0,0-26-33.6-80.4-91.3C2408.7,110.6,2272.3,50.1,2272.3,50.1"/>
	</g>
	<g>
		<defs>
			<ellipse id="SVGID_5_" cx="2404.6" cy="165.5" rx="122.3" ry="138.1"/>
		</defs>
		<clipPath id="SVGID_6_">
			<use xlink:href="#SVGID_5_"  overflow="visible"/>
		</clipPath>
		<path clip-path="url(#SVGID_6_)" fill="#EA8A23" d="M2235.3,215.8c0,0,133.6,0.5,178.3-55.4c46.9-58.7,138.2-63.9,138.2-63.9
			s-84.4-39.6-165.4,38.6C2318.9,200.2,2235.3,215.8,2235.3,215.8"/>
	</g>
</g>
<g id="DSFC_Text">
	<g id="Text_1_">
		<g>
			<path fill="#409ED7" d="M2073.5,595.1c-14.9-26.1-43.2-42.1-75.8-42.1c-49.2,0-88.1,35.6-88.1,88.9c0,52.5,38.9,88.6,88.1,88.6
				c34.5,0,64.1-18.5,78.8-47.6l10.3,3c-16,33.7-49.5,54.9-89.1,54.9c-54.6,0-98.7-41.6-98.7-98.9s44-98.9,98.7-98.9
				c37.2,0,69.3,19.3,86.4,49.5L2073.5,595.1z"/>
			<path fill="#409ED7" d="M2261.1,546.7V737h-10.6v-95.1h-120.4V737h-10.3V546.7h10.3v85.1h120.4v-85.1H2261.1z"/>
			<path fill="#409ED7" d="M2428.2,737l-47-76.6c-4.9,0.8-10.1,1.1-15.5,1.1h-40.8V737h-10.3V546.7h51.1c42.9,0,68.8,21.7,68.8,57.6
				c0,28-15.8,47-42.9,54.1l48.9,78.5H2428.2z M2365.7,652.2c37.8,0,58.2-19,58.2-47.8c0-31.3-22.6-47.6-58.2-47.6h-40.8v95.4
				L2365.7,652.2L2365.7,652.2z"/>
			<path fill="#409ED7" d="M2480.4,737V546.7h10.3V737H2480.4z"/>
			<path fill="#409ED7" d="M2650.8,595.9c-4.1-26.6-26.1-43.2-54.9-43.2c-30.7,0-53.3,14.4-53.3,39.4c0,24.7,30.2,32.3,56.5,39.4
				c25.5,6.8,65,16.6,65,55.7c0,30.7-26.6,53.5-67.1,53.5c-41.3,0-65.8-25-68.5-55.4l10.1-2.7c1.6,26.1,22.3,48.4,58.4,48.4
				c34.5,0,56.5-18.5,56.5-43.8c0-34.2-38.3-40.8-65-48.1c-21.5-6-56.5-14.4-56.5-47c0-29.6,27.2-49.2,63.9-49.2
				c33.7,0,59.8,19.3,65,50.3L2650.8,595.9z"/>
			<path fill="#409ED7" d="M2826.1,546.7v10.1h-66.6V737h-10.6V556.8h-66.6v-10.1L2826.1,546.7L2826.1,546.7z"/>
		</g>
		<g>
			<path fill="#8BCAEF" d="M1796.7,726.6h23.6v-29.8h7.4v29.8h31.1v8.2H1789v-45.6h7.7V726.6z"/>
			<path fill="#8BCAEF" d="M1787.6,645.8c0-20,15.3-36.3,36.3-36.3s36.3,16.3,36.3,36.3c0,20-15.3,36.2-36.3,36.2
				S1787.6,665.8,1787.6,645.8z M1852.2,645.8c0-15.8-11.6-27.8-28.3-27.8c-17,0-28.3,12.1-28.3,27.8c0,15.9,11.4,27.8,28.3,27.8
				C1840.7,673.6,1852.2,661.6,1852.2,645.8z"/>
			<path fill="#8BCAEF" d="M1858.8,555.8l-26.1,15.8c0.1,1.1,0.1,2.4,0.1,3.6v13.1h26v8.2H1789v-21.2c0-16.4,8.6-26.1,22-26.1
				c10,0,17.1,5.3,20,14.6l27.7-17V555.8z M1825.5,574.4c0-11.2-6.1-17-14.5-17c-8.9,0-14.4,6.3-14.4,17v13.9h28.8V574.4z"/>
		</g>
		<g>
			<path fill="#409ED7" d="M1900,358.4c-4.1-26.6-26.1-43.2-54.9-43.2c-30.7,0-53.3,14.4-53.3,39.4c0,24.7,30.2,32.3,56.5,39.4
				c25.5,6.8,65,16.6,65,55.7c0,30.7-26.6,53.5-67.1,53.5c-41.3,0-65.8-25-68.5-55.4l10.1-2.7c1.6,26.1,22.3,48.4,58.4,48.4
				c34.5,0,56.5-18.5,56.5-43.8c0-34.2-38.3-40.8-65-48.1c-21.5-6-56.5-14.4-56.5-47c0-29.6,27.2-49.2,63.9-49.2
				c33.7,0,59.8,19.3,65,50.3L1900,358.4z"/>
			<path fill="#409ED7" d="M2075.3,309.2v10.1h-66.6v180.2h-10.6V319.3h-66.6v-10.1L2075.3,309.2L2075.3,309.2z"/>
			<path fill="#409ED7" d="M2253.3,309.2v114.2c0,52.2-26.1,80.2-75.3,80.2c-49.5,0-75-28-75-80.2V309.2h10.3v115.2
				c0,45.4,22,69,64.7,69c42.9,0,64.7-23.6,64.7-69V309.2H2253.3z"/>
			<path fill="#409ED7" d="M2379.2,309.2c54.4,0,98.4,39.1,98.4,96.2c0,55.7-43.5,94-95.9,94h-81V309.2H2379.2z M2381.6,489.4
				c45.9,0,85.3-31.8,85.3-84c0-52.7-39.4-86.2-87.8-86.2h-68.2v170.1L2381.6,489.4L2381.6,489.4z"/>
			<path fill="#409ED7" d="M2639.5,489.4v10.1h-122.8V309.2h121.2v10.1H2527v72.6h90v9.8h-90v87.8L2639.5,489.4L2639.5,489.4z"/>
			<path fill="#409ED7" d="M2830.1,309.2v190.3h-9.8l-107.1-144.3c-16.3-22-21.2-29.9-21.5-29.9h-0.3c-0.3,0,0.5,20.9,0.5,45.4
				v128.8h-10.3V309.2h9.8L2798,452.5c15.5,20.7,22,29.9,22.3,29.9h0.3c0.3,0-0.8-21.2-0.8-45.1v-128H2830.1z"/>
			<path fill="#409ED7" d="M3007.6,309.2v10.1H2941v180.2h-10.6V319.3h-66.6v-10.1L3007.6,309.2L3007.6,309.2z"/>
			<path fill="#409ED7" d="M3147.8,358.4c-4.1-26.6-26.1-43.2-54.9-43.2c-30.7,0-53.3,14.4-53.3,39.4c0,24.7,30.2,32.3,56.5,39.4
				c25.5,6.8,65,16.6,65,55.7c0,30.7-26.6,53.5-67.1,53.5c-41.3,0-65.8-25-68.5-55.4l10.1-2.7c1.6,26.1,22.3,48.4,58.4,48.4
				c34.5,0,56.5-18.5,56.5-43.8c0-34.2-38.3-40.8-65-48.1c-21.5-6-56.5-14.4-56.5-47c0-29.6,27.2-49.2,63.9-49.2
				c33.7,0,59.8,19.3,65,50.3L3147.8,358.4z"/>
		</g>
		<g>
			<path fill="#409ED7" d="M1867,69.2c54.4,0,98.4,39.1,98.4,96.2c0,55.7-43.5,94-95.9,94h-81V69.2H1867z M1869.4,249.4
				c45.9,0,85.3-31.8,85.3-84c0-52.7-39.4-86.2-87.8-86.2h-68.2v170.1H1869.4z"/>
			<path fill="#409ED7" d="M2118.1,259.5l-47-76.6c-4.9,0.8-10.1,1.1-15.5,1.1h-40.8v75.6h-10.3V69.2h51.1
				c42.9,0,68.8,21.7,68.8,57.6c0,28-15.8,47-42.9,54.1l48.9,78.5H2118.1z M2055.6,174.7c37.8,0,58.2-19,58.2-47.8
				c0-31.3-22.6-47.6-58.2-47.6h-40.8v95.4H2055.6z"/>
			<path fill="#409ED7" d="M2293.2,249.4v10.1h-122.8V69.2h121.2v10.1h-110.9v72.6h90v9.8h-90v87.8L2293.2,249.4L2293.2,249.4z"/>
			<path fill="#409ED7" d="M2660.6,249.4v10.1h-122.8V69.2H2659v10.1h-110.9v72.6h90v9.8h-90v87.8L2660.6,249.4L2660.6,249.4z"/>
			<path fill="#409ED7" d="M2821.2,249.4v10.1h-118.5V69.2h10.3v180.2L2821.2,249.4L2821.2,249.4z"/>
		</g>
	</g>
	<g id="Gold_Cross_1_" display="none">
		
			<rect x="2393.2" y="53.5" transform="matrix(0.809 -0.5878 0.5878 0.809 364.2447 1451.9424)" display="inline" fill="#F0C61D" width="46.3" height="224"/>
		
			<rect x="2309.2" y="126.2" transform="matrix(0.809 -0.5878 0.5878 0.809 371.505 1441.9496)" display="inline" fill="#EA8A23" width="190.8" height="46.3"/>
	</g>
</g>
<g>
	<g>
		<g>
			<rect id="skin" x="894" y="248" fill="#605813" stroke="#000000" stroke-miterlimit="10" width="778" height="149.7"/>
		</g>
		<g>
			<path id="SVGID_3_" fill="#BFBFBF" d="M1218.9,321.1c-139.1,112.3-267.2-15.6-267.2-15.6C1032.3,266.6,1218.9,321.1,1218.9,321.1
				"/>
		</g>
		<g id="left_eye">
			<defs>
				<path id="SVGID_7_" d="M1218.9,321.1c-139.1,112.3-267.2-15.6-267.2-15.6C1032.3,266.6,1218.9,321.1,1218.9,321.1"/>
			</defs>
			<defs>
				<path id="SVGID_8_" d="M1218.9,321.1c-139.1,112.3-267.2-15.6-267.2-15.6C1032.3,266.6,1218.9,321.1,1218.9,321.1"/>
			</defs>
			<clipPath id="SVGID_9_">
				<use xlink:href="#SVGID_7_"  overflow="visible"/>
			</clipPath>
			<clipPath id="SVGID_10_" clip-path="url(#SVGID_9_)">
				<use xlink:href="#SVGID_8_"  overflow="visible"/>
			</clipPath>
			
				<radialGradient id="SVGID_11_" cx="1087.668" cy="464.767" r="60.4304" gradientTransform="matrix(1 0 0 -1 0 792)" gradientUnits="userSpaceOnUse">
				<stop  offset="0" style="stop-color:#008687"/>
				<stop  offset="1" style="stop-color:#000060"/>
			</radialGradient>
			
				<ellipse clip-path="url(#SVGID_10_)" fill="url(#SVGID_11_)" stroke="#000000" stroke-miterlimit="10" cx="1087.7" cy="327.2" rx="61.3" ry="59.5"/>
			<ellipse clip-path="url(#SVGID_10_)" cx="1087.7" cy="327.2" rx="14.6" ry="25.5"/>
			<g clip-path="url(#SVGID_10_)">
				<path id="SVGID_1_" fill="none" stroke="#000000" stroke-miterlimit="10" d="M1218.9,321.1c-139.1,112.3-267.2-15.6-267.2-15.6
					C1032.3,266.6,1218.9,321.1,1218.9,321.1"/>
			</g>
		</g>
		<g id="Media_Ninja">
			<g id="Face">
				<g>
					<path id="XMLID_1_" fill="#BFBFBF" d="M1359.8,321.1c140.4,112.3,269.8-15.6,269.8-15.6
						C1548.2,266.6,1359.8,321.1,1359.8,321.1"/>
				</g>
				<g id="right_eye">
					<defs>
						<path id="SVGID_12_" d="M1359.8,321.1c140.4,112.3,269.8-15.6,269.8-15.6C1548.2,266.6,1359.8,321.1,1359.8,321.1"/>
					</defs>
					<defs>
						<path id="SVGID_13_" d="M1359.8,321.1c140.4,112.3,269.8-15.6,269.8-15.6C1548.2,266.6,1359.8,321.1,1359.8,321.1"/>
					</defs>
					<clipPath id="SVGID_14_">
						<use xlink:href="#SVGID_12_"  overflow="visible"/>
					</clipPath>
					<clipPath id="SVGID_15_" clip-path="url(#SVGID_14_)">
						<use xlink:href="#SVGID_13_"  overflow="visible"/>
					</clipPath>
					
						<radialGradient id="SVGID_16_" cx="2691.9443" cy="464.768" r="60.4309" gradientTransform="matrix(-1.0097 0 0 -1 4209.4541 792)" gradientUnits="userSpaceOnUse">
						<stop  offset="0" style="stop-color:#008687"/>
						<stop  offset="1" style="stop-color:#000060"/>
					</radialGradient>
					
						<ellipse clip-path="url(#SVGID_15_)" fill="url(#SVGID_16_)" stroke="#000000" stroke-miterlimit="10" cx="1491.4" cy="327.2" rx="61.9" ry="59.5"/>
					<ellipse clip-path="url(#SVGID_15_)" cx="1491.4" cy="327.2" rx="14.7" ry="25.5"/>
					<g clip-path="url(#SVGID_15_)">
						<path id="XMLID_2_" fill="none" stroke="#000000" stroke-miterlimit="10" d="M1359.8,321.1c140.4,112.3,269.8-15.6,269.8-15.6
							C1548.2,266.6,1359.8,321.1,1359.8,321.1"/>
					</g>
				</g>
				<g>
					<defs>
						<ellipse id="SVGID_17_" cx="1289.8" cy="397.7" rx="428.8" ry="428.4"/>
					</defs>
					<clipPath id="SVGID_18_">
						<use xlink:href="#SVGID_17_"  overflow="visible"/>
					</clipPath>
					<path clip-path="url(#SVGID_18_)" stroke="#545454" stroke-width="4" stroke-miterlimit="10" d="M1844.9,237.3
						c0,0-237.1,141.3-555.1,143.4c-246,1.7-591.1-143.4-591.1-143.4V836h1146.1V237.3z"/>
				</g>
				<g>
					<defs>
						<ellipse id="SVGID_19_" cx="1289.8" cy="397.7" rx="428.8" ry="428.4"/>
					</defs>
					<clipPath id="SVGID_20_">
						<use xlink:href="#SVGID_19_"  overflow="visible"/>
					</clipPath>
					<path clip-path="url(#SVGID_20_)" stroke="#545454" stroke-width="4" stroke-miterlimit="10" d="M1811.1,345
						c0,0-367.4-61.6-521.2-61.6c-132.8,0-624.9,61.6-624.9,61.6V-38h1146.1V345z"/>
				</g>
				<g>
					<defs>
						<ellipse id="SVGID_21_" cx="1289.8" cy="397.7" rx="428.8" ry="428.4"/>
					</defs>
					<clipPath id="SVGID_22_">
						<use xlink:href="#SVGID_21_"  overflow="visible"/>
					</clipPath>
					<path clip-path="url(#SVGID_22_)" stroke="#545454" stroke-width="4" stroke-miterlimit="10" d="M1845.8,319.5
						c0,0-139.2,231.3-586,231.1C832.4,550.5,766,456,766,456l64.6,74.1c0,0,145.3,135.2,421.1,173.8c337.8,47.2,528.1-51,528.1-51"
						/>
				</g>
				<g>
					<defs>
						<ellipse id="SVGID_23_" cx="1289.8" cy="397.7" rx="428.8" ry="428.4"/>
					</defs>
					<clipPath id="SVGID_24_">
						<use xlink:href="#SVGID_23_"  overflow="visible"/>
					</clipPath>
					<path clip-path="url(#SVGID_24_)" stroke="#545454" stroke-width="4" stroke-miterlimit="10" d="M721.7,93.9
						c0,0,131.9-84.2,538.4,24.3c413,110.2,612.2,224.5,612.2,224.5l95.2-284.6c0,0-392.1-152-664-168.8
						C993.6-129.8,706,81.1,706,81.1"/>
				</g>
				<g>
					<defs>
						<ellipse id="SVGID_25_" cx="1289.8" cy="397.7" rx="428.8" ry="428.4"/>
					</defs>
					<clipPath id="SVGID_26_">
						<use xlink:href="#SVGID_25_"  overflow="visible"/>
					</clipPath>
					<g id="cross" clip-path="url(#SVGID_26_)">
						<g>
							<path fill="#212121" stroke="#545454" stroke-width="4" stroke-miterlimit="10" d="M1521.6,431.8
								c-38.8-36.4-85.9-72.3-137.2-106.8C1556.1,196.5,1806,184,1806,184s-258.6-107.3-524.4,76.8C1064.8,133.8,826,40,826,40
								s165.4,109.2,357.6,297.8C956,511,696.4,553.8,696.4,553.8s384.9,1.2,573.6-127.5c29.6,31.7,59.3,65.1,88.7,100.1
								c145,172.5,224.9,342.6,224.9,342.6l220-153.9C1803.5,715.1,1712.3,610.8,1521.6,431.8z"/>
						</g>
					</g>
				</g>
			</g>
		</g>
	</g>
</g>
</svg>
