<?xml version="1.0" encoding="utf-8"?>
<!-- Generator: Adobe Illustrator 16.0.0, SVG Export Plug-In . SVG Version: 6.00 Build 0)  -->
<!DOCTYPE svg PUBLIC "-//W3C//DTD SVG 1.1//EN" "http://www.w3.org/Graphics/SVG/1.1/DTD/svg11.dtd">
<svg version="1.1" xmlns="http://www.w3.org/2000/svg" xmlns:xlink="http://www.w3.org/1999/xlink" x="0px" y="0px" width="2312px"
	 height="868px" viewBox="0 0 2312 868" enable-background="new 0 0 2312 868" xml:space="preserve">
<g id="DSFC_Text">
	<g id="Text_1_">
		<g>
			<path fill="#409ED7" d="M1223.534,633.104c-14.948-26.092-43.215-42.128-75.829-42.128c-49.194,0-88.06,35.604-88.06,88.876
				c0,52.455,38.866,88.603,88.06,88.603c34.518,0,64.143-18.481,78.819-47.563l10.327,2.989
				c-16.035,33.702-49.465,54.901-89.146,54.901c-54.63,0-98.66-41.583-98.66-98.931s44.03-98.932,98.66-98.932
				c37.235,0,69.307,19.297,86.429,49.466L1223.534,633.104z"/>
			<path fill="#409ED7" d="M1411.072,584.726v190.253h-10.6v-95.126h-120.403v95.126h-10.327V584.726h10.327v85.07h120.403v-85.07
				H1411.072z"/>
			<path fill="#409ED7" d="M1578.225,774.979l-47.02-76.645c-4.893,0.815-10.056,1.087-15.492,1.087h-40.769v75.558h-10.327V584.726
				h51.096c42.943,0,68.763,21.743,68.763,57.62c0,27.994-15.764,47.02-42.942,54.086l48.922,78.547H1578.225z M1515.713,690.18
				c37.779,0,58.163-19.024,58.163-47.834c0-31.256-22.559-47.563-58.163-47.563h-40.769v95.397H1515.713z"/>
			<path fill="#409ED7" d="M1630.41,774.979V584.726h10.327v190.253H1630.41z"/>
			<path fill="#409ED7" d="M1800.821,633.92c-4.077-26.636-26.092-43.215-54.901-43.215c-30.712,0-53.271,14.405-53.271,39.409
				c0,24.733,30.168,32.344,56.532,39.41c25.548,6.795,64.957,16.579,64.957,55.717c0,30.712-26.635,53.542-67.132,53.542
				c-41.312,0-65.772-25.004-68.491-55.444l10.057-2.718c1.631,26.092,22.287,48.378,58.435,48.378
				c34.518,0,56.532-18.481,56.532-43.758c0-34.246-38.322-40.769-64.957-48.106c-21.472-5.979-56.533-14.405-56.533-47.021
				c0-29.625,27.18-49.193,63.871-49.193c33.702,0,59.794,19.297,64.958,50.281L1800.821,633.92z"/>
			<path fill="#409ED7" d="M1976.129,584.726v10.057h-66.588v180.196h-10.601V594.782h-66.588v-10.057H1976.129z"/>
		</g>
		<g>
			<path fill="#8BCAEF" d="M946.682,764.642h23.633v-29.815h7.379v29.815h31.111v8.177h-69.801v-45.57h7.678V764.642z"/>
			<path fill="#8BCAEF" d="M937.608,683.769c0-20.042,15.256-36.295,36.296-36.295s36.296,16.253,36.296,36.295
				c0,20.043-15.256,36.197-36.296,36.197S937.608,703.812,937.608,683.769z M1002.224,683.769
				c0-15.754-11.567-27.819-28.319-27.819c-16.952,0-28.319,12.065-28.319,27.819c0,15.855,11.368,27.821,28.319,27.821
				C990.656,711.59,1002.224,699.624,1002.224,683.769z"/>
			<path fill="#8BCAEF" d="M1008.805,593.821l-26.125,15.756c0.1,1.097,0.1,2.393,0.1,3.59v13.063h26.025v8.177h-69.801v-21.239
				c0-16.354,8.576-26.126,22.037-26.126c9.972,0,17.052,5.285,20.043,14.559l27.721-16.952V593.821z M975.5,612.369
				c0-11.169-6.083-16.952-14.459-16.952c-8.875,0-14.359,6.282-14.359,16.952v13.86H975.5V612.369z"/>
		</g>
		<g>
			<path fill="#409ED7" d="M1049.992,396.42c-4.077-26.636-26.092-43.215-54.901-43.215c-30.712,0-53.271,14.405-53.271,39.41
				c0,24.733,30.169,32.343,56.532,39.41c25.548,6.795,64.958,16.579,64.958,55.717c0,30.712-26.636,53.542-67.132,53.542
				c-41.312,0-65.773-25.004-68.491-55.444l10.056-2.718c1.631,26.092,22.287,48.378,58.435,48.378
				c34.518,0,56.532-18.481,56.532-43.758c0-34.246-38.322-40.769-64.958-48.106c-21.471-5.98-56.532-14.405-56.532-47.02
				c0-29.625,27.179-49.194,63.871-49.194c33.702,0,59.793,19.297,64.958,50.281L1049.992,396.42z"/>
			<path fill="#409ED7" d="M1225.3,347.226v10.057h-66.589v180.196h-10.599V357.282h-66.588v-10.057H1225.3z"/>
			<path fill="#409ED7" d="M1403.324,347.226v114.151c0,52.184-26.092,80.179-75.286,80.179c-49.466,0-75.014-27.995-75.014-80.179
				V347.226h10.328v115.239c0,45.389,22.015,69.034,64.686,69.034c42.942,0,64.686-23.646,64.686-69.034V347.226H1403.324z"/>
			<path fill="#409ED7" d="M1529.165,347.226c54.357,0,98.388,39.138,98.388,96.214c0,55.717-43.486,94.039-95.941,94.039h-80.993
				V347.226H1529.165z M1531.611,527.422c45.932,0,85.342-31.799,85.342-83.982c0-52.728-39.41-86.157-87.788-86.157h-68.22v170.14
				H1531.611z"/>
			<path fill="#409ED7" d="M1789.542,527.422v10.057h-122.849V347.226h121.218v10.057h-110.891v72.567h89.963v9.785h-89.963v87.787
				H1789.542z"/>
			<path fill="#409ED7" d="M1980.07,347.226v190.253h-9.784l-107.085-144.32c-16.308-22.015-21.2-29.897-21.472-29.897h-0.271
				c-0.272,0,0.543,20.928,0.543,45.389v128.828h-10.327V347.226h9.784l106.541,143.233c15.492,20.656,22.016,29.896,22.287,29.896
				h0.271c0.272,0-0.815-21.199-0.815-45.117V347.226H1980.07z"/>
			<path fill="#409ED7" d="M2157.55,347.226v10.057h-66.589v180.196h-10.6V357.282h-66.588v-10.057H2157.55z"/>
			<path fill="#409ED7" d="M2297.796,396.42c-4.077-26.636-26.092-43.215-54.901-43.215c-30.712,0-53.271,14.405-53.271,39.41
				c0,24.733,30.168,32.343,56.532,39.41c25.548,6.795,64.957,16.579,64.957,55.717c0,30.712-26.635,53.542-67.132,53.542
				c-41.312,0-65.772-25.004-68.491-55.444l10.057-2.718c1.631,26.092,22.287,48.378,58.435,48.378
				c34.518,0,56.532-18.481,56.532-43.758c0-34.246-38.322-40.769-64.957-48.106c-21.472-5.98-56.533-14.405-56.533-47.02
				c0-29.625,27.18-49.194,63.871-49.194c33.702,0,59.794,19.297,64.958,50.281L2297.796,396.42z"/>
		</g>
		<g>
			<path fill="#409ED7" d="M1016.998,107.226c54.358,0,98.388,39.138,98.388,96.214c0,55.717-43.486,94.039-95.942,94.039H938.45
				V107.226H1016.998z M1019.443,287.422c45.933,0,85.342-31.799,85.342-83.983c0-52.728-39.41-86.157-87.788-86.157h-68.219v170.14
				H1019.443z"/>
			<path fill="#409ED7" d="M1268.134,297.479l-47.02-76.645c-4.893,0.815-10.057,1.087-15.492,1.087h-40.769v75.558h-10.328V107.226
				h51.097c42.942,0,68.763,21.743,68.763,57.62c0,27.994-15.764,47.02-42.943,54.086l48.923,78.547H1268.134z M1205.622,212.68
				c37.778,0,58.163-19.025,58.163-47.835c0-31.256-22.559-47.563-58.163-47.563h-40.769v95.398H1205.622z"/>
			<path fill="#409ED7" d="M1443.168,287.422v10.056h-122.849V107.226h121.218v10.057h-110.891v72.567h89.963v9.785h-89.963v87.788
				H1443.168z"/>
			<path fill="#409ED7" d="M1810.583,287.422v10.056h-122.849V107.226h121.218v10.057h-110.891v72.567h89.963v9.785h-89.963v87.788
				H1810.583z"/>
			<path fill="#409ED7" d="M1971.215,287.422v10.056h-118.5V107.226h10.327v180.197H1971.215z"/>
		</g>
	</g>
	<g id="Gold_Cross_1_" display="none">
		
			<rect x="1543.168" y="91.453" transform="matrix(-0.809 0.5878 -0.5878 -0.809 2953.0945 -552.616)" display="inline" fill="#F0C61D" width="46.314" height="223.998"/>
		
			<rect x="1459.19" y="164.128" transform="matrix(-0.809 0.5878 -0.5878 -0.809 2922.3428 -574.9596)" display="inline" fill-rule="evenodd" clip-rule="evenodd" fill="#EA8A23" width="190.779" height="46.314"/>
	</g>
</g>
<g id="Pillar_Labels" display="none">
	<g id="Outreach">
		
			<text transform="matrix(1 0 0 1 87.4824 1040.5156)" display="inline" fill="#40B449" font-family="'Novecentowide-Bold'" font-size="125.3333">Outreach</text>
	</g>
	<g id="Prayer">
		
			<text transform="matrix(1 0 0 1 187.749 1040.5156)" display="inline" fill="#C82127" font-family="'Novecentowide-Bold'" font-size="125.3333">Prayer</text>
	</g>
	<g id="Growth_x0D_Groups">
		<text transform="matrix(1 0 0 1 152.0908 1040.5156)" display="inline"><tspan x="0" y="0" fill="#EEA71F" font-family="'Novecentowide-Bold'" font-size="125.3333">Growth</tspan><tspan x="25.255" y="109.667" fill="#EEA71F" font-family="'Novecentowide-Bold'" font-size="125.3333">Groups</tspan></text>
	</g>
	<g id="Community_2_">
		
			<text transform="matrix(1 0 0 1 42.3628 1040.5156)" display="inline" fill="#2C81C3" font-family="'Novecentowide-Bold'" font-size="125.3333">Community</text>
	</g>
	<g id="Training">
		
			<text transform="matrix(1 0 0 1 131.8506 1040.5156)" display="inline" fill="#F16722" font-family="'Novecentowide-Bold'" font-size="125.3333">Training</text>
	</g>
	<g id="Church">
		
			<text transform="matrix(1 0 0 1 167.1934 1040.5156)" display="inline" fill="#95489A" font-family="'Novecentowide-Bold'" font-size="125.3333">Church</text>
		<g display="inline">
			<path fill="#95489A" d="M235.501,979.979c-4.011-5.014-11.531-8.146-18.424-8.146c-14.539,0-23.563,10.402-23.563,24.816
				c0,15.165,9.902,24.565,23.563,24.565c8.397,0,16.419-4.262,20.054-10.277l21.307,5.515
				c-7.269,15.542-22.936,25.819-41.36,25.819c-25.193,0-45.497-19.177-45.497-45.622c0-26.446,20.304-45.622,45.497-45.622
				c17.296,0,32.086,9.274,39.856,23.312L235.501,979.979z"/>
			<path fill="#95489A" d="M345.795,952.78v87.735h-21.057v-34.092H291.9v34.092h-21.056V952.78H291.9v33.967h32.838V952.78H345.795
				z"/>
			<path fill="#95489A" d="M440.546,952.78v48.756c0,26.32-15.542,40.734-38.729,40.734c-23.313,0-38.729-14.414-38.729-40.734
				V952.78h21.056v48.255c0,15.04,6.142,21.558,17.672,21.558s17.672-6.518,17.672-21.558V952.78H440.546z"/>
			<path fill="#95489A" d="M505.968,1040.516l-16.294-28.576h-10.779v28.576h-21.056V952.78h32.712
				c22.059,0,35.345,12.032,35.345,30.081c0,11.781-5.64,20.555-15.792,25.317l19.427,32.337H505.968z M478.896,993.264h14.539
				c7.52,0,10.528-5.64,10.528-10.402s-3.008-10.403-10.528-10.403h-14.539V993.264z"/>
			<path fill="#95489A" d="M600.97,979.979c-4.011-5.014-11.531-8.146-18.424-8.146c-14.539,0-23.563,10.402-23.563,24.816
				c0,15.165,9.902,24.565,23.563,24.565c8.397,0,16.419-4.262,20.054-10.277l21.307,5.515
				c-7.27,15.542-22.937,25.819-41.361,25.819c-25.193,0-45.497-19.177-45.497-45.622c0-26.446,20.304-45.622,45.497-45.622
				c17.296,0,32.086,9.274,39.856,23.312L600.97,979.979z"/>
			<path fill="#95489A" d="M711.263,952.78v87.735h-21.057v-34.092h-32.838v34.092h-21.056V952.78h21.056v33.967h32.838V952.78
				H711.263z"/>
		</g>
	</g>
</g>
<g id="Prayer_1_" display="none">
	<g id="Lines" display="inline">
		<defs>
			<path id="Cross_Circle_6_" d="M787.066,183.415C911.2,354.272,890.194,586.413,747.473,733.287L543.151,452.063l186.665-135.62
				l-86.958-119.687L456.193,332.375L326.906,154.426L207.22,241.383l129.287,177.949l-186.665,135.62l86.957,119.688
				l186.665-135.62l204.322,281.225C444,910.594,216.727,858.837,92.592,687.979C-46.321,496.782-3.464,228.835,188.306,89.505
				S648.153-7.782,787.066,183.415z"/>
		</defs>
		<clipPath id="Cross_Circle_8_">
			<use xlink:href="#Cross_Circle_6_"  overflow="visible"/>
		</clipPath>
		
			<rect y="-38.721" clip-path="url(#Cross_Circle_8_)" fill-rule="evenodd" clip-rule="evenodd" fill="#FE4747" width="874.164" height="906.721"/>
		<path clip-path="url(#Cross_Circle_8_)" fill-rule="evenodd" clip-rule="evenodd" fill="#FE7A7A" d="M175.253,889.147
			c5.282-19.929,10.472-39.882,15.861-59.78c21.726-80.2,43.512-160.384,65.275-240.573
			c29.614-109.111,59.242-218.218,88.837-327.335c29.186-107.613,58.336-215.237,87.514-322.852
			c2.056-7.581,2.118-7.622,9.814-5.541c17.656,4.774,35.265,9.728,52.967,14.328c4.327,1.125,5.51,2.679,4.27,7.204
			C484.771,9.387,469.943,64.228,455.06,119.054c-23.445,86.37-46.903,172.736-70.34,259.108
			c-33.018,121.672-66.023,243.346-99.032,365.019c-12.481,46.004-24.968,92.005-37.425,138.015c-0.708,2.616-1.167,5.3-1.742,7.952
			C222.765,889.147,199.009,889.147,175.253,889.147z"/>
		<path clip-path="url(#Cross_Circle_8_)" fill-rule="evenodd" clip-rule="evenodd" fill="#C91B1B" d="M614,869
			c4.521-17.058,8.963-34.136,13.576-51.168c18.596-68.646,37.243-137.277,55.871-205.914
			c25.348-93.392,50.707-186.779,76.038-280.176c24.981-92.109,49.932-184.228,74.906-276.339c1.76-6.488,1.813-6.523,8.4-4.742
			c15.112,4.086,30.185,8.326,45.336,12.264c3.703,0.963,4.716,2.293,3.654,6.166c-12.856,46.896-25.548,93.835-38.287,140.763
			c-20.067,73.927-40.146,147.851-60.206,221.778c-28.261,104.143-56.511,208.287-84.765,312.431
			c-10.683,39.376-21.371,78.75-32.033,118.131c-0.606,2.239-0.999,4.536-1.491,6.807C654.667,869,634.333,869,614,869z"/>
		<path clip-path="url(#Cross_Circle_8_)" fill-rule="evenodd" clip-rule="evenodd" fill="#C91B1B" d="M237,869
			c14.174-52.404,28.318-104.815,42.528-157.21c30.687-113.148,61.412-226.286,92.11-339.432
			c17.922-66.055,35.793-132.123,53.801-198.154c1.111-4.072,0.398-5.461-3.943-5.188c-15.968,1.001-31.966,0.977-47.957,1.013
			c-1.736,0.004-3.617,0.623-5.419-0.728c1.331-1.539,2.593-2.998,3.853-4.457c15.368-14.451,30.75-28.891,46.104-43.359
			c20.307-19.136,40.591-38.295,60.886-57.443c5.754-5.281,11.531-10.538,17.257-15.851c8.532-7.916,17.062-15.836,25.52-23.831
			c2.612-2.469,3.932-2.185,5.015,1.36c12.048,39.447,24.151,78.878,36.306,118.294c5.878,19.063,11.895,38.082,17.849,57.122
			c2.685,9.09,5.369,18.18,8.053,27.27c-0.341,0.218-0.681,0.437-1.021,0.654c-3.964-2.345-7.928-4.688-11.891-7.032
			c-11.271-6.782-22.524-13.591-33.816-20.337c-7.715-4.609-7.217-5.56-9.744,3.741c-22.745,83.731-45.434,167.478-68.149,251.217
			c-34.576,127.457-69.184,254.906-103.695,382.381c-2.693,9.947-6.088,19.729-7.643,29.971C314.333,869,275.667,869,237,869z"/>
		<path clip-path="url(#Cross_Circle_8_)" fill-rule="evenodd" clip-rule="evenodd" fill="#C91B1B" d="M1,733
			c4.906-17.63,9.903-35.235,14.702-52.894c25.932-95.423,51.822-190.857,77.713-286.291c19.788-72.94,39.546-145.89,59.335-218.831
			C168.486,116.986,184.249,58.995,200,1c27,0,54,0,81,0c-0.299,1.795-0.445,3.631-0.918,5.379
			c-13.524,49.997-27.074,99.986-40.633,149.975c-27.684,102.064-55.372,204.129-83.063,306.192
			c-25.292,93.223-50.581,186.446-75.89,279.665C69.021,784.479,57.5,826.737,46,869c-13.833,0-27.668-0.111-41.499,0.088
			c-2.99,0.044-3.593-0.604-3.585-3.588C1.038,821.333,1,777.167,1,733z"/>
		<path clip-path="url(#Cross_Circle_8_)" fill-rule="evenodd" clip-rule="evenodd" fill="#FE7A7A" d="M576.048,222.027
			c3.963,2.344,7.927,4.688,11.891,7.032c0.341-0.218,0.681-0.437,1.021-0.654c-2.684-9.09-5.368-18.18-8.053-27.271
			c2.098-8.055,4.126-16.128,6.305-24.16C603.124,118.313,619.066,59.657,635,1c9,0,18,0,27,0
			c7.877,3.272,16.287,4.697,24.435,7.031c7.08,2.028,7.307,2.341,5.435,9.23c-18.561,68.315-37.096,136.638-55.639,204.959
			c-23.864,87.933-47.739,175.863-71.59,263.8c-18.662,68.807-37.278,137.625-55.943,206.43
			c-15.351,56.588-30.746,113.163-46.105,169.748c-0.61,2.246-1.064,4.534-1.592,6.802c-20.333,0-40.667,0-61,0
			c0.293-1.797,0.432-3.637,0.903-5.386c7.498-27.81,15.027-55.61,22.571-83.407c24.115-88.854,48.254-177.703,72.358-266.562
			c25.891-95.445,51.749-190.899,77.646-286.343C573.993,225.409,574.272,223.336,576.048,222.027z"/>
		<path clip-path="url(#Cross_Circle_8_)" fill-rule="evenodd" clip-rule="evenodd" fill="#FE7A7A" d="M343,1
			c-11.152,41.146-22.294,82.295-33.458,123.438c-22.94,84.539-45.913,169.07-68.833,253.616
			c-18.04,66.544-35.987,133.113-54.039,199.654c-22.673,83.577-45.458,167.124-68.069,250.719
			c-3.649,13.49-7.903,26.83-10.601,40.572c-11.333,0-22.667,0-34,0c0.359-1.792,0.617-3.61,1.093-5.371
			c6.435-23.792,12.901-47.576,19.357-71.362c27.305-100.611,54.604-201.225,81.915-301.835
			c22.991-84.699,45.997-169.395,68.989-254.093c14.659-54.002,29.327-108,43.951-162.011C295.919,49.898,302.438,25.443,309,1
			C320.333,1,331.667,1,343,1z"/>
		<path clip-path="url(#Cross_Circle_8_)" fill-rule="evenodd" clip-rule="evenodd" fill="#FE7A7A" d="M511,869
			c14.342-53.05,28.665-106.104,43.03-159.148c16.151-59.636,32.327-119.265,48.517-178.891
			c21.731-80.036,43.513-160.06,65.224-240.102c23.804-87.757,47.564-175.524,71.276-263.306c0.974-3.606,2.395-5.071,6.301-3.774
			c5.05,1.677,10.203,3.164,15.42,4.178c4.705,0.914,5.201,3.094,4.024,7.316c-7.194,25.829-14.179,51.716-21.202,77.592
			c-24.342,89.682-48.672,179.366-73.005,269.051c-23.33,85.986-46.659,171.974-69.989,257.961
			c-20.017,73.771-40.04,147.541-60.029,221.32c-0.691,2.555-1.052,5.2-1.566,7.803C529.667,869,520.333,869,511,869z"/>
	</g>
</g>
<g id="Outreach_1_" display="none">
	<g id="arrows" display="inline">
		<defs>
			<path id="Cross_Circle_5_" d="M787.066,183.415C911.2,354.272,890.194,586.413,747.473,733.287L543.151,452.063l186.665-135.62
				l-86.958-119.687L456.193,332.375L326.906,154.426L207.22,241.383l129.287,177.949l-186.665,135.62l86.957,119.688
				l186.665-135.62l204.322,281.225C444,910.594,216.727,858.837,92.592,687.979C-46.321,496.782-3.464,228.835,188.306,89.505
				S648.153-7.782,787.066,183.415z"/>
		</defs>
		<clipPath id="Cross_Circle_9_">
			<use xlink:href="#Cross_Circle_5_"  overflow="visible"/>
		</clipPath>
		<rect clip-path="url(#Cross_Circle_9_)" fill-rule="evenodd" clip-rule="evenodd" fill="#31BD15" width="911" height="868"/>
		<path clip-path="url(#Cross_Circle_9_)" fill-rule="evenodd" clip-rule="evenodd" fill="#259110" d="M443.907,542.117
			c3.507,27.893-9.192,49.085-28.602,66.994c-12.674,11.694-28.292,14.751-45.196,12.253c-12.643-1.87-24.443-6.457-36.373-10.68
			c-6.907-2.444-13.75-5.095-21.087-6.067c-5.837-0.773-11.069,0.277-14.661,5.33c-3.575,5.029-2.871,10.426-0.436,15.672
			c2.111,4.548,5.062,8.583,8.072,12.594c7.807,10.399,15.653,20.776,18.335,33.99c2.43,11.967-0.595,22.877-6.518,33.041
			c-4.438,7.615-9.484,14.893-14.54,22.124c-2.495,3.57-2.104,5.52,2.078,6.938c8.676,2.94,17.298,6.04,25.928,9.116
			c3.296,1.176,6.595,2.389,9.34,4.667c4.805,3.986,4.828,9.06,0.033,13.12c-2.318,1.962-5.054,3.224-7.866,4.284
			c-37.722,14.221-75.446,28.437-113.184,42.615c-5.253,1.975-6.282,1.371-6.395-4.222c-0.601-29.63-1.052-59.263-1.625-88.895
			c-0.196-10.158-0.584-20.313-0.912-30.47c-0.119-3.69,0.083-7.34,1.321-10.85c2.088-5.922,6.768-7.663,12.3-4.604
			c2.368,1.311,4.229,3.208,5.992,5.229c6.458,7.407,12.884,14.843,19.437,22.165c3.771,4.214,4.879,4.107,8.683-0.141
			c2.35-2.626,4.304-5.533,5.742-8.739c2.044-4.557,1.998-8.997-0.94-13.278c-4.617-6.729-9.255-13.45-13.675-20.309
			c-5.804-9.005-10.348-18.561-13.048-29.033c-6.319-24.511,8.821-62.342,45.281-72.538c23.558-6.588,46.433-5.557,68.357,6.141
			c4.556,2.431,9.102,4.893,13.754,7.126c12.105,5.813,23.053-0.922,23.708-14.454c0.234-4.821-1.141-9.26-3.238-13.461
			c-5.007-10.034-9.118-20.358-10.982-31.477c1.374-10.319,3.708-20.357,9.379-29.268c4.561-7.165,9.318-14.207,14.062-21.253
			c7.22-10.723,7.248-10.704,18.081-3.484c7.489,4.982,14.978,9.966,22.466,14.949c3.114,2.217,6.273,4.374,9.325,6.672
			c2.055,1.546,3.517,1.295,4.879-0.896c2.018-3.249,4.175-6.412,6.273-9.611c4.598-6.271,9.226-12.523,12.81-19.462
			c1.983-1.379,3.123-3.481,4.224-5.48c2.066-3.75,4.172-4.368,7.813-1.653c6.124,4.567,12.74,8.473,18.89,13.007
			c5.11,3.768,10.254,4.365,15.877,1.649c7.031-3.395,14.05-6.815,21.073-10.225c30.358-6.97,53.178,6.525,72.618,27.646
			c10.145,11.022,13.809,24.838,12.452,39.875c-1.059,11.735-4.55,22.831-8.495,33.835c-2.417,6.741-4.761,13.512-6.981,20.32
			c-1.243,3.813-1.897,7.789-1.77,11.816c0.315,9.99,8.376,15.751,17.932,12.843c4.37-1.329,8.065-3.913,11.746-6.521
			c7.741-5.486,15.142-11.447,23.564-15.963c15.961-8.555,31.705-8.001,47.085,1.137c7.868,4.673,15.4,9.926,22.942,15.123
			c3.218,2.217,4.946,1.806,6.215-1.938c2.888-8.521,5.898-17,8.986-25.449c1.139-3.116,2.35-6.273,4.034-9.11
			c3.851-6.489,9.093-6.82,14.121-1.133c2.714,3.07,3.993,6.905,5.401,10.635c12.24,32.42,24.437,64.855,36.645,97.288
			c1.761,4.678,3.485,9.369,5.277,14.035c1.39,3.619,0.19,5.441-3.672,5.519c-23.643,0.465-47.287,1.246-70.931,1.267
			c-14.006,0.011-27.969,0.917-41.958,0.989c-4.99,0.025-9.992-0.151-14.969-0.503c-3.808-0.27-7.305-1.623-8.897-5.45
			c-1.621-3.898-0.015-7.435,2.729-10.009c7.891-7.403,16.022-14.551,24.128-21.722c5.849-5.175,5.875-5.708-0.093-10.996
			c-2.27-2.012-4.794-3.554-7.532-4.842c-4.821-2.268-9.174-1.881-13.601,1.272c-7.325,5.218-14.731,10.352-22.375,15.082
			c-12.055,7.462-24.885,12.843-39.45,12.521c-26.573-0.586-50.352-17.924-58.477-43.182c-8.236-25.603-6.917-50.541,6.488-74.359
			c2.205-3.917,4.371-7.883,6.166-11.996c4.9-11.235-1.784-21.737-14.144-22.448c-4.584-0.264-8.992,0.583-13.118,2.552
			c-9.782,4.67-19.618,9.162-30.396,11.093c-16.237-0.062-29.853-6.966-42.634-16.188c-5.392-3.892-11.068-7.392-16.473-11.267
			c-2.593-1.858-4.201-1.751-5.983,1.079c-3.365,5.345-6.828,10.658-10.648,15.682c-4.151,5.456-4.235,10.964-1.354,16.82
			C436.827,524.941,440.989,533.256,443.907,542.117z"/>
		<path clip-path="url(#Cross_Circle_9_)" fill-rule="evenodd" clip-rule="evenodd" fill="#259110" d="M347.835,434.429
			c-1.548-0.449-2.979,0.069-4.371,0.615c-13.348,5.237-26.526,3.977-39.429-1.394c-13.892-5.783-26.073-14.122-35.615-25.889
			c-9.378-11.565-12.911-24.893-11.545-39.703c1.507-16.346,7.917-31.25,13.179-46.501c2.179-6.314,4.211-12.636,3.777-19.481
			c-0.652-10.281-9.032-15.688-18.654-11.86c-4.204,1.672-7.943,4.181-11.617,6.799c-6.238,4.445-12.354,9.095-18.835,13.159
			c-18.696,11.722-37.239,10.462-55.398-1.394c-6.136-4.007-12.196-8.135-18.205-12.331c-3.333-2.328-5.296-1.777-6.657,2.157
			c-3.321,9.601-6.703,19.187-10.335,28.674c-1.831,4.781-3.655,10.431-10.058,10.316c-6.177-0.11-8.441-5.469-10.281-10.292
			c-14.723-38.601-29.326-77.248-43.914-115.9c-1.697-4.498-1.116-5.095,3.879-4.936c1.831,0.058,3.665,0.122,5.494,0.076
			c30.468-0.755,60.936-1.572,91.406-2.268c9.318-0.213,18.645-0.118,27.968-0.121c1.324-0.001,2.669,0.133,3.968,0.389
			c8.986,1.776,11.39,8.409,5.306,15.249c-6.103,6.862-13.525,12.336-20.321,18.47c-2.226,2.009-4.451,4.018-6.708,5.991
			c-2.237,1.957-2.247,3.944-0.13,5.95c3.781,3.584,7.926,6.624,12.934,8.291c4.401,1.465,8.118-0.073,11.689-2.591
			c9.938-7.005,19.782-14.17,30.725-19.602c11.398-5.658,23.279-9.073,36.167-7.396c30.919,4.022,54.147,29.167,57.142,60.488
			c2.105,22.021-1.421,42.445-13.092,61.352c-1.394,2.256-2.407,4.752-3.531,7.167c-2.417,5.192-3.985,10.497,0.238,15.476
			c4.577,5.398,10.486,8.173,17.661,7.415c3.822-0.403,7.482-1.678,10.927-3.412c9.866-4.962,19.975-9.184,31.062-10.53
			c6.752,0.997,13.531,1.859,19.879,4.621c14.034,6.107,25.719,15.945,38.436,24.143c2.002,1.29,1.89,2.859,0.676,4.67
			c-2.316,3.457-4.567,6.958-6.845,10.441c-4.691,6.8-9.382,13.6-14.074,20.401c-2.035,3.023-4.201,5.971-6.065,9.097
			c-1.688,2.834-3.369,2.938-5.981,1.086c-6.624-4.693-13.534-8.989-20.086-13.776c-4.67-3.412-9.344-3.67-14.52-1.671
			C358.323,428.098,353.055,431.209,347.835,434.429z"/>
		<path clip-path="url(#Cross_Circle_9_)" fill-rule="evenodd" clip-rule="evenodd" fill="#259110" d="M443.227,339.925
			c-6.293-28.769,5.763-51.115,25.366-70.375c12.986-12.759,29.11-16.718,47.038-14.093c12.65,1.852,24.476,6.371,36.398,10.626
			c7.063,2.52,14.084,5.166,21.606,6.07c5.629,0.677,10.792-0.19,14.278-5.079c3.541-4.964,3.201-10.417,0.656-15.675
			c-3.728-7.705-9.458-14.091-14.32-21.049c-4.214-6.032-8.02-12.271-10.504-19.241c-5.516-15.476-1.678-29.546,6.654-42.824
			c4.073-6.488,8.448-12.793,12.866-19.054c2.391-3.388,1.75-5.309-2.123-6.632c-8.514-2.908-17.002-5.899-25.449-8.994
			c-2.958-1.083-5.975-2.249-8.603-3.939c-6.659-4.282-6.713-10.379-0.217-14.8c2.18-1.484,4.634-2.666,7.109-3.602
			c37.564-14.2,75.149-28.349,112.742-42.475c5.325-2,6.388-1.413,6.508,4.068c0.892,40.466,1.698,80.935,2.492,121.402
			c0.06,3.005-0.351,6.001-1.315,8.866c-2.011,5.971-6.686,7.759-12.239,4.697c-2.663-1.47-4.753-3.621-6.735-5.896
			c-6.236-7.161-12.47-14.326-18.755-21.444c-3.757-4.254-4.776-4.26-8.623,0.061c-1.652,1.856-3.169,3.87-4.495,5.973
			c-3.775,5.988-3.646,11.856,0.588,17.688c6.953,9.576,13.543,19.374,19.151,29.841c20.6,38.46-3.042,75.7-28.928,86.63
			c-26.279,11.097-52.517,10.797-78.211-2.337c-4.748-2.426-9.348-5.158-14.176-7.403c-11.777-5.478-22.802,1.634-23.181,14.737
			c-0.139,4.813,1.297,9.214,3.195,13.5c3.572,8.067,7.703,15.906,9.662,24.614c0.2,0.888,1.092,1.621,1.663,2.426
			c-0.365,2.121-0.947,4.23-1.056,6.364c-0.48,9.335-3.105,18.081-7.99,25.938c-6.401,10.294-13.389,20.221-20.003,30.384
			c-1.643,2.524-3.159,2.247-5.271,0.744c-3.79-2.695-7.692-5.233-11.547-7.837c-7.472-5.008-14.943-10.016-22.416-15.024
			c-1.488-1.065-2.876-2.327-4.486-3.155c-3.877-1.996-4.278-4.173-1.594-7.777c4.672-6.272,8.723-13.006,13.306-19.349
			c3.499-4.844,3.968-9.813,1.497-15.052C450.358,354.228,446.75,347.097,443.227,339.925z"/>
		<path clip-path="url(#Cross_Circle_9_)" fill-rule="evenodd" clip-rule="evenodd" fill="#46FE21" d="M347.835,434.429
			c5.22-3.219,10.488-6.331,16.243-8.555c5.176-2,9.849-1.741,14.52,1.671c6.552,4.787,13.462,9.083,20.086,13.776
			c2.612,1.853,4.293,1.748,5.981-1.086c1.864-3.126,4.03-6.073,6.065-9.097c3.192,6.707,4.91,13.678,3.784,21.157
			c-10.833-7.22-10.86-7.238-18.081,3.484c-4.744,7.046-9.501,14.088-14.062,21.253c-5.671,8.91-8.005,18.948-9.379,29.268
			c-0.448,0.488-0.973,0.927-1.328,1.476c-16.23,25.194-48.749,38.44-78.066,31.764c-17.666-4.023-29.38-15.568-38.394-30.492
			c-5.439-9.007-9.607-18.653-14.153-28.111c-2.67-5.555-5.333-11.139-9.16-16.023c-3.669-4.683-8.087-8.019-14.532-6.815
			c-6.358,1.188-9.545,5.606-11.339,11.376c-2.739,8.804-3.149,18.033-4.94,27.013c-1.976,9.905-4.92,19.344-11.516,27.322
			c-8.212,9.933-19.263,14.493-31.446,16.986c-6.365,1.303-12.754,2.48-19.126,3.746c-6.051,1.202-6.382,1.857-3.677,7.604
			c3.619,7.688,7.339,15.327,10.921,23.031c1.26,2.711,2.5,5.479,3.295,8.347c2.301,8.298-2.304,13.053-10.794,11.137
			c-2.736-0.617-5.415-1.671-7.982-2.829c-36.141-16.315-72.261-32.676-108.378-49.042c-6.437-2.917-6.531-3.275-1.56-8.451
			c27.586-28.711,55.2-57.397,82.82-86.075c2.431-2.524,5.013-4.913,8.254-6.39c5.583-2.545,9.802-0.586,11.564,5.344
			c0.967,3.253,0.819,6.577,0.593,9.918c-0.652,9.638-1.137,19.287-1.915,28.913c-0.308,3.805,1.132,5.167,4.801,4.976
			c3.862-0.201,7.61-0.875,11.276-2.041c5.219-1.658,8.338-5.022,9.278-10.614c1.738-10.346,3.857-20.61,6.262-30.841
			c11.552-49.145,67.234-65.445,106.269-33.106c15.475,12.821,26.786,28.155,31.896,47.788c0.964,3.702,2.175,7.353,3.469,10.955
			c1.978,5.504,4.597,10.687,11.256,11.369c7.021,0.722,13.182-1.394,17.804-7.01c2.026-2.464,3.549-5.254,4.579-8.272
			C333.346,456.586,338.163,444.199,347.835,434.429z"/>
		<path clip-path="url(#Cross_Circle_9_)" fill-rule="evenodd" clip-rule="evenodd" fill="#46FE21" d="M443.227,339.925
			c3.523,7.172,7.132,14.302,10.54,21.527c2.471,5.239,2.001,10.208-1.497,15.052c-4.583,6.343-8.633,13.077-13.306,19.349
			c-2.684,3.604-2.283,5.781,1.594,7.777c1.61,0.828,2.998,2.089,4.486,3.155c-6.551,2.315-13.362,3.303-20.238,3.951
			c2.278-3.483,4.529-6.984,6.845-10.441c1.213-1.811,1.326-3.38-0.676-4.67c-12.717-8.198-24.402-18.035-38.436-24.143
			c-6.348-2.762-13.126-3.625-19.879-4.621c-10.107-6.183-18.866-13.652-23.998-24.692c-7.166-15.414-10.857-31.512-8.88-48.519
			c1.9-16.341,10.378-28.906,23.488-38.542c10.144-7.455,21.513-12.659,32.848-17.927c6.348-2.951,12.743-5.825,18.411-10.011
			c5.093-3.761,8.792-8.383,7.582-15.19c-1.209-6.807-6.232-9.912-12.352-11.63c-9.659-2.711-19.725-3.188-29.496-5.33
			c-16.189-3.548-29.037-11.442-36.123-27.068c-2.421-5.34-3.94-10.971-5.089-16.7c-1.179-5.879-2.208-11.791-3.411-17.665
			c-1.21-5.898-1.907-6.244-7.229-3.75c-8.6,4.03-17.131,8.208-25.777,12.136c-4.865,2.21-10.461,4.976-14.972,0.655
			c-4.645-4.449-2.403-10.37-0.127-15.425c16.825-37.378,33.807-74.685,50.636-112.061c1.787-3.97,3.226-4.11,6.325-1.104
			c28.7,27.844,57.519,55.564,86.309,83.316c2.641,2.545,5.36,5.022,7.094,8.334c3.233,6.179,1.191,10.748-5.531,12.499
			c-4.639,1.209-9.294,0.36-13.927,0.118c-7.817-0.411-15.619-1.082-23.434-1.546c-5.135-0.306-6.286,0.895-5.75,6.054
			c0.293,2.81,0.779,5.619,1.434,8.368c1.491,6.266,5.125,10.077,11.855,11.106c11.031,1.688,22.031,3.679,32.753,6.875
			c37.38,11.146,56.844,47.75,43.293,82.737c-9.408,24.292-26.57,41.634-50.944,51.339c-6.641,2.645-13.631,4.396-20.4,6.734
			c-5.309,1.834-10.527,4.131-11.341,10.625c-0.925,7.385,0.984,13.93,7.089,18.715c3.584,2.81,7.754,4.576,12.049,5.95
			C425.291,328.539,434.925,332.938,443.227,339.925z"/>
		<path clip-path="url(#Cross_Circle_9_)" fill-rule="evenodd" clip-rule="evenodd" fill="#46FE21" d="M467.459,421.81
			c3.855,2.604,7.757,5.142,11.547,7.837c2.112,1.503,3.627,1.78,5.271-0.744c6.614-10.163,13.602-20.089,20.003-30.384
			c4.885-7.856,7.51-16.603,7.99-25.938c0.109-2.133,0.691-4.243,1.056-6.364c3.245-3.552,6.068-7.647,9.807-10.568
			c20.542-16.049,43.856-21.228,69.178-15.583c13.816,3.08,23.752,12.321,31.717,23.723c7.396,10.586,12.427,22.422,17.967,33.991
			c2.664,5.564,5.382,11.107,9.131,16.05c3.672,4.84,8.299,7.629,14.647,6.639c6.302-0.983,9.299-5.358,11.158-10.858
			c2.203-6.519,2.691-13.378,3.835-20.106c0.196-1.15,0.366-2.304,0.555-3.454c5.013-30.396,17.507-43.227,47.695-48.982
			c5.237-0.999,10.491-1.921,15.709-3.014c5.297-1.109,5.653-1.802,3.392-6.648c-3.736-8.003-7.576-15.957-11.377-23.93
			c-1.58-3.315-3.146-6.656-3.704-10.316c-0.902-5.915,2.517-9.704,8.513-9.534c3.054,0.087,5.883,1.114,8.629,2.351
			c37.227,16.772,74.453,33.544,111.663,50.351c5.099,2.304,5.188,3.096,1.498,6.926c-22.777,23.642-45.535,47.301-68.313,70.941
			c-5.781,6-11.52,12.045-17.453,17.891c-3.71,3.655-7.925,7.623-13.562,5.134c-5.467-2.412-5.299-8.116-5.08-13.107
			c0.455-10.317,1.154-20.627,2.007-30.92c0.329-3.966-0.99-5.575-4.973-5.31c-3.504,0.234-6.947,0.603-10.347,1.564
			c-5.705,1.613-9.024,5.062-10.075,11.063c-2.443,13.942-4.613,27.956-9.815,41.263c-12.322,31.525-47.786,47.752-79.38,35.515
			c-25.363-9.825-43.313-27.58-52.72-53.408c-2.166-5.945-3.779-12.089-5.868-18.064c-1.984-5.676-4.696-11.049-11.59-11.668
			c-7.442-0.669-13.83,1.791-18.336,8.034c-2.859,3.962-4.479,8.559-6.024,13.135c-3.168,9.385-7.205,18.287-13.665,25.927
			c-7.023,3.409-14.042,6.83-21.073,10.225c-5.623,2.716-10.767,2.118-15.877-1.649c-6.15-4.534-12.766-8.439-18.89-13.007
			c-3.64-2.715-5.746-2.097-7.813,1.653c-1.102,1.999-2.241,4.102-4.224,5.48c-0.593-3.384-1.323-6.752-1.743-10.158
			C468.036,429.812,465.762,425.98,467.459,421.81z"/>
		<path clip-path="url(#Cross_Circle_9_)" fill-rule="evenodd" clip-rule="evenodd" fill="#46FE21" d="M443.907,542.117
			c-2.918-8.861-7.08-17.176-11.185-25.52c-2.881-5.856-2.797-11.364,1.354-16.82c3.821-5.023,7.283-10.337,10.648-15.682
			c1.782-2.83,3.39-2.938,5.983-1.079c5.405,3.875,11.081,7.375,16.473,11.267c12.781,9.223,26.396,16.127,42.634,16.188
			c23.212,16.079,29.361,40.028,29.103,66.111c-0.211,21.339-12.122,36.418-29.795,47.347
			c-10.094,6.243-20.941,10.992-31.615,16.089c-4.967,2.372-9.868,4.863-14.281,8.203c-5.011,3.791-7.835,8.521-6.725,15.078
			c1.072,6.33,5.554,9.144,11.044,10.955c6.373,2.103,13.061,2.582,19.615,3.75c3.772,0.672,7.546,1.345,11.3,2.104
			c22.687,4.594,35.739,18.689,40.315,41.055c1.436,7.019,2.795,14.055,4.026,21.112c0.745,4.271,2.594,5.19,6.547,3.232
			c8.957-4.438,17.996-8.724,27.115-12.817c4.661-2.091,9.888-4.972,14.44-0.487c4.625,4.557,2.252,10.104,0.081,14.948
			c-14.865,33.148-29.891,66.227-44.867,99.325c-1.923,4.252-3.807,8.521-5.802,12.738c-2.21,4.671-2.987,4.879-6.734,1.286
			c-14.916-14.298-29.744-28.687-44.635-43.012c-13.57-13.055-27.185-26.063-40.761-39.111c-3.126-3.005-6.278-6.033-8.171-10.021
			c-2.531-5.334-0.652-9.522,4.953-11.343c2.738-0.89,5.549-1.063,8.401-0.87c9.972,0.678,19.959,1.194,29.911,2.098
			c4.469,0.405,6.138-1.118,5.807-5.536c-0.25-3.345-0.669-6.632-1.622-9.838c-1.663-5.594-5.118-9.042-11.127-10.075
			c-11.49-1.976-22.911-4.209-34.198-7.293c-43.266-11.817-57.662-60.451-37.217-93.787c12.492-20.369,29.129-35.367,52.385-42.31
			c4.789-1.43,9.588-2.859,14.278-4.577c13.008-4.763,15.515-18.825,5.017-28.146c-1.844-1.639-3.985-3.136-6.248-4.075
			C461.595,548.973,452.731,545.593,443.907,542.117z"/>
	</g>
</g>
<g id="Church_1_" display="none">
	<g id="Shape_1_">
		<g display="inline">
			<path fill-rule="evenodd" clip-rule="evenodd" fill="#EC6C6D" d="M637.673,817.256c0.005,0.007,0.01,0.013,0.015,0.02
				c0.109-0.057,2.143-1.117,5.575-3.008c-1.857,1.006-3.726,1.994-5.601,2.975C637.666,817.246,637.669,817.251,637.673,817.256z
				 M695.272,781.257c7.205-5.319,14.176-10.946,20.642-16.452c-11.719,9.848-23.98,19.104-36.75,27.711
				C684.452,789.002,689.896,785.227,695.272,781.257z M637.688,817.275c-0.003,0.002-0.02,0.011-0.02,0.011
				S690.937,887.8,637.688,817.275z M746.656,736.344c3.833-3.848,6.075-6.229,6.235-6.398c-0.013-0.017-0.026-0.033-0.039-0.05
				C750.81,732.065,748.744,734.215,746.656,736.344z M752.892,729.945c0.005,0.007,0.01,0.014,0.016,0.021
				c53.881,69.697,0.011-0.049,0.011-0.049S752.897,729.938,752.892,729.945z M679.165,792.516c-1.25,0.842-2.522,1.653-3.781,2.483
				C676.634,794.185,677.893,793.361,679.165,792.516z M646.976,812.198c-1.239,0.688-2.465,1.394-3.713,2.069
				C644.358,813.664,645.612,812.966,646.976,812.198z M675.383,794.999c-11.226,7.304-21.445,13.28-28.408,17.199
				C656.692,806.813,666.165,801.074,675.383,794.999z M743.806,739.18c-5.958,5.882-14.468,13.99-24.398,22.616
				C727.837,754.56,735.974,747.016,743.806,739.18z M746.656,736.344c-0.938,0.956-1.903,1.888-2.85,2.836
				C744.832,738.167,745.788,737.216,746.656,736.344z M719.408,761.796c-1.166,1.001-2.317,2.02-3.494,3.009
				C717.099,763.796,718.26,762.794,719.408,761.796z M263.536,669.802L176.008,555.24L344.52,430.301l-151.847-194l116.26-88.921
				l147.27,197.501l164.705-129.92l87.527,114.562L539.924,454.462c0,0,122.048,157.876,212.929,275.434
				c85.318-90.59,131.167-216.79,114.791-349.602C838.363,142.829,621.262-25.831,382.735,3.581
				C144.208,32.992-25.419,249.338,3.861,486.803C33.142,724.267,250.243,892.927,488.77,863.516
				c53.604-6.609,103.724-22.665,148.893-46.273c-89.5-118.535-209.421-277.36-209.421-277.36L263.536,669.802z"/>
		</g>
	</g>
	<g id="Map" display="inline">
		<defs>
			<path id="Cross_Circle_4_" d="M787.066,183.415C911.2,354.272,890.194,586.413,747.473,733.287L543.151,452.063l186.665-135.62
				l-86.958-119.687L456.193,332.375L326.906,154.426L207.22,241.383l129.287,177.949l-186.665,135.62l86.957,119.688
				l186.665-135.62l204.322,281.225C444,910.594,216.727,858.837,92.592,687.979C-46.321,496.782-3.464,228.835,188.306,89.505
				S648.153-7.782,787.066,183.415z"/>
		</defs>
		<clipPath id="Cross_Circle_10_">
			<use xlink:href="#Cross_Circle_4_"  overflow="visible"/>
		</clipPath>
		
			<rect y="-46.886" clip-path="url(#Cross_Circle_10_)" fill-rule="evenodd" clip-rule="evenodd" fill="#B800D9" width="911" height="937.453"/>
		
			<path clip-path="url(#Cross_Circle_10_)" fill-rule="evenodd" clip-rule="evenodd" fill="#8800A1" stroke="#D11CF1" stroke-width="8" stroke-miterlimit="10" d="
			M303,1c15.333,0,30.667,0,46,0c5.52,25.615,16.006,49.309,28.022,72.409c12.215,23.48,26.396,45.911,37.537,69.951
			c1.864,4.021,4.123,4.762,8.074,4.438c17.739-1.452,35.495-2.703,53.252-3.931c10.788-0.745,21.591-1.29,32.382-1.996
			c1.365-0.09,4.409,0.03,2.608-2.316c-5.948-7.751-8.454-17.247-13.655-25.374c-9.063-14.158-17.76-28.555-26.47-42.936
			c-10.96-18.097-21.713-36.318-28.172-56.648C441.18,10.194,439.338,5.818,440,1c16.333,0,32.667,0,49,0
			c0.453,1.24,0.786,2.541,1.376,3.713c21.832,43.304,44.819,85.993,68.158,128.499c1.691,3.08,3.541,3.216,6.45,2.555
			c74.404-16.915,149.301-31.298,224.613-43.524c38.792-6.297,77.705-11.771,116.643-17.08c3.909-0.533,5.864,0.132,5.758,4.723
			c-0.256,10.993-0.256,22.002,0.004,32.995c0.102,4.33-1.62,5.263-5.566,5.286c-42.801,0.252-84.999,5.923-126.89,14.334
			c-63.678,12.786-126.243,30.775-190.534,40.683c-3.003,0.463-4.021,1.348-2.285,4.504c16.14,29.346,32.183,58.745,48.144,88.188
			c1.534,2.83,3.107,3.134,5.996,2.16c23.524-7.924,47.032-15.908,70.677-23.461c42.219-13.484,84.611-26.386,128.14-35.099
			c12.765-2.555,25.605-4.546,38.693-3.544c2.914,0.224,6.446,0.086,6.985,4.139c1.238,9.294,1.851,18.573-1.704,27.608
			c-1.134,2.88-2.978,4.474-6.024,5.304c-21.376,5.824-42.734,11.712-64.053,17.741c-49.532,14.01-99.04,28.103-148.551,42.185
			c-5.831,1.658-5.846,1.768-2.935,6.9c5.181,9.13,10.452,18.209,15.577,27.37c19.846,35.483,39.681,70.973,59.411,106.521
			c1.765,3.179,3.163,4.266,6.836,2.349c20.53-10.718,41.31-20.962,61.799-31.757c33.758-17.785,67.354-35.875,101.03-53.817
			c5.085-2.709,5.158-2.64,5.166,3.405c0.014,11-0.414,22.021,0.165,32.991c0.332,6.269-1.941,9.425-7.325,12.338
			c-46.021,24.893-91.983,49.889-138.726,73.417c-5.876,2.957-5.837,2.967-2.568,8.782c16.246,28.905,32.556,57.775,48.624,86.779
			c2.259,4.076,4.219,4.681,8.554,2.969c28.824-11.386,57.592-22.902,86.099-35.063c5.061-2.158,5.166-2.087,5.175,3.479
			c0.021,12.167-0.143,24.336,0.091,36.498c0.076,3.971-1.256,5.902-4.998,7.33c-22.569,8.613-45.036,17.492-67.548,26.256
			c-5.512,2.146-5.645,2.172-2.389,7.386c12.092,19.36,24.477,38.543,36.349,58.037c10.861,17.833,20.195,36.387,25.215,56.895
			c2.538,10.373,2.558,19.426-8.276,25.192c-0.719,0.383-1.317,1.02-1.913,1.6c-2.048,1.992-4.471,2.558-7.304,2.496
			c-10.456-0.224-17.978-4.016-23.208-13.983c-19.974-38.064-40.689-75.738-60.928-113.664c-2.197-4.118-4.187-4.871-8.511-3.187
			c-28.101,10.953-56.524,21.044-85.138,30.561c-61.652,20.504-123.467,40.521-185.085,61.126
			c-72.102,24.11-143.154,50.922-211.752,83.92c-4.079,1.962-4.664,3.332-2.116,7.2c8.982,13.635,17.54,27.549,26.369,41.286
			c2.166,3.369,1.684,4.372-2.438,4.327c-14.832-0.163-29.667-0.145-44.498,0c-3.068,0.03-4.89-1.054-6.456-3.598
			c-4.368-7.093-8.96-14.049-13.442-21.072c-4.064-6.368-4.025-6.334-10.198-2.475c-3.67,2.295-7.382,4.537-11.179,6.612
			c-4.857,2.655-10.058,4.397-15.54,5.293c-13.625,2.226-22.526-4.292-24.159-17.716c-0.161-1.322-0.436-2.631-0.59-3.954
			c-1.527-13.112,3.545-22.497,15.215-28.191c3.145-1.534,6.203-3.289,9.45-4.563c4.132-1.622,4.933-3.626,2.263-7.455
			c-8.581-12.299-17.011-24.706-25.313-37.195c-2.202-3.312-3.911-3.482-6.997-1c-9.997,8.042-20.147,15.906-31.077,22.679
			c-9.113,5.646-18.594,10.463-29.28,12.396c-12.544,2.269-19.14-1.327-23.762-12.904c-3.62-9.067,0.819-23.38,9.043-28.338
			c16.409-9.894,32.9-19.651,49.38-29.426c5.558-3.296,6.104-5.31,1.837-10.387c-28.82-34.294-50.822-72.902-71.523-112.368
			c-22.066-42.068-41.758-85.289-62.35-128.071c-2.191-4.553-4.21-5.137-8.691-3.305C20.935,467.705,11.338,471.601,1,473
			c0-11.333,0-22.667,0-34c7.178-0.535,13.828-3.3,20.745-4.935c2.869-0.678,2.101-2.517,0.98-4.154
			C15.618,419.514,8.792,408.916,1,399c0-23.333,0-46.667,0-70c3.677-0.52,5.842,1.1,7.366,4.47
			c4.345,9.611,10.323,18.255,16.482,26.771c12.974,17.936,27.375,34.978,36.137,55.601c2.192,5.159,5.199,6.185,10.144,4.958
			c8.728-2.167,17.564-3.906,26.267-6.162c3.453-0.896,5.553-0.283,7.471,2.805c3.777,6.084,7.775,12.043,11.933,17.875
			c2.44,3.422,2.24,4.913-2.232,5.859c-10.263,2.173-20.39,4.981-30.653,7.152c-4.236,0.896-4.509,2.358-2.753,5.984
			c9.95,20.545,19.214,41.406,28.244,62.371c2.989,6.94,3.896,7.145,9.419,2.033c0.489-0.452,0.951-0.936,1.407-1.421
			c31.311-33.257,64.129-65.008,96.801-96.905c1.139-1.112,2.751-1.941,3.005-3.909c-2.284-0.722-4.264,0.457-6.28,0.922
			c-12.811,2.953-25.45,6.646-38.41,8.966c-0.197-0.201-0.396-0.399-0.597-0.596c0.173-3.804,2.045-7.009,3.737-10.242
			c4.674-8.932,11.698-16.172,17.545-24.261c2.188-3.027,4.748-4.673,8.407-5.542c93.986-22.325,187.813-45.288,280.97-70.904
			c6.432-1.769,6.457-1.75,2.379-7.013c-13.699-17.684-29.356-33.625-44.587-49.938c-19.047-20.399-36.851-41.704-49.616-66.749
			c-1.39-2.727-3.265-3.879-6.26-3.979c-18.287-0.617-36.567-1.677-54.859-1.948c-42.316-0.627-84.643-0.942-126.936,1.024
			c-17.126,0.797-34.24,2.014-51.33,3.407c-19.797,1.615-39.078,6.464-58.583,9.917c-12.953,2.293-25.883,4.83-39.127,4.614
			c-1.752-0.028-4.753,0.585-4.909-1.261c-0.488-5.803-2.933-11.568-0.108-17.557c2.933-6.218,8.599-7.838,14.269-9.803
			c59.392-20.58,120.841-28.122,183.333-28.204c36.308-0.047,72.617,1.096,108.927,1.652c7.313,0.112,7.518-0.211,5.138-7.308
			c-6.059-18.065-14.381-35.131-23.152-51.99c-10.306-19.808-20.585-39.633-28.478-60.566C308.051,19.951,304.407,10.806,303,1z
			 M515.722,344.006c-0.818,0.169-1.803,0.33-2.766,0.578c-7.099,1.827-14.189,3.682-21.288,5.508
			c-64.373,16.559-129.01,32.031-193.787,46.921c-4.358,1.001-8,2.646-11.197,5.935c-7.316,7.526-14.903,14.793-22.486,22.055
			c-44.169,42.302-88.606,84.331-130.095,129.332c-2.258,2.45-2.607,4.538-1.646,7.576c4.298,13.584,10.397,26.32,17.586,38.576
			c18.513,31.56,41.691,59.872,62.449,89.869c1.94,2.804,3.569,1.945,5.794,0.71c55.133-30.602,112.23-57.139,170.099-82.074
			c82.313-35.468,165.972-67.795,247.111-106.004c9.781-4.606,9.973-4.51,4.35-13.58c-24.994-40.322-53.378-78.138-84.909-113.559
			c-9.185-10.316-18.798-20.329-30.434-28.057C521.87,346.043,519.189,344.327,515.722,344.006z M276.323,775.631
			c0.941-0.413,2.015-0.863,3.072-1.352c57.989-26.805,117.646-49.369,178.072-69.966c60.711-20.694,122.039-39.482,183.037-59.289
			c43.578-14.149,86.924-28.948,129.79-45.143c3.611-1.364,4.825-2.41,2.223-6.133c-5.169-7.394-8.7-15.723-12.461-23.898
			c-6.472-14.069-12.164-28.518-20.119-41.871c-4.277-7.179-8.999-13.996-15.625-19.326c-2.497-2.009-4.556-2.452-7.612-0.902
			c-65.733,33.325-133.604,61.897-201.492,90.429c-64.815,27.239-129.614,54.516-192.679,85.69
			c-26.74,13.219-53.146,27.069-79.079,41.818c-2.64,1.501-4.442,2.65-1.919,5.965c10.494,13.789,20.804,27.717,31.21,41.572
			C273.598,774.366,274.263,775.932,276.323,775.631z M612.42,317.185c-0.381,0.09-0.708,0.153-1.028,0.243
			c-14.262,3.998-28.522,8-42.784,11.998c-3.26,0.913-2.283,2.427-0.683,4.195c8.378,9.256,16.854,18.428,25.045,27.848
			c12.661,14.563,26.316,28.281,37.558,44.056c16.521,23.185,33.128,46.31,49.498,69.601c2.268,3.226,4.128,3.499,7.286,1.705
			c3.611-2.052,7.326-4.056,11.223-5.439c4.751-1.687,4.512-3.928,2.278-7.721c-12.078-20.515-23.837-41.217-35.939-61.717
			c-15.996-27.095-32.199-54.068-48.351-81.071C615.558,319.269,615.021,316.983,612.42,317.185z M533.323,180.162
			c-1.17,0.082-1.835,0.129-2.499,0.175c-27.229,1.885-54.457,3.784-81.688,5.643c-5.562,0.38-5.834,0.685-3.477,5.859
			c6.634,14.564,16.151,27.189,26.863,38.907c20.316,22.224,43.794,41.526,61.311,66.34c1.048,1.483,2.304,1.615,3.921,1.111
			c18.123-5.642,36.248-11.279,54.397-16.835c2.816-0.862,2.811-2.173,1.442-4.355c-2.476-3.95-4.802-7.995-7.185-12.003
			c-15.918-26.77-31.825-53.545-47.769-80.298C537.32,182.489,536.369,179.616,533.323,180.162z"/>
		<path clip-path="url(#Cross_Circle_10_)" fill-rule="evenodd" clip-rule="evenodd" fill="#8800A1" d="M203.099,296.688
			c0.065,12.63-4.422,24.155-8.913,35.625c-10.896,27.827-24.815,54.191-39.287,80.276c-4.202,7.573-8.571,15.054-12.739,22.646
			c-1.841,3.354-3.21,3.647-5.24,0.084c-20.702-36.34-41.079-72.813-55.873-112.123c-8.681-23.066-7.529-44.607,7.619-64.711
			c16.167-21.456,45.128-30.436,70.646-21.844C185.689,245.522,203.048,269.345,203.099,296.688z M137.796,328.205
			c18.696,0.039,33.725-14.636,33.704-32.909c-0.021-18.907-15.268-34.204-33.929-34.042c-18.022,0.157-33.288,15.643-33.295,33.775
			C104.27,313.339,119.252,328.168,137.796,328.205z"/>
		<path clip-path="url(#Cross_Circle_10_)" fill-rule="evenodd" clip-rule="evenodd" fill="#D11CF1" d="M137.796,328.205
			c-18.544-0.037-33.526-14.866-33.52-33.176c0.007-18.133,15.272-33.618,33.295-33.775c18.662-0.162,33.908,15.135,33.929,34.042
			C171.521,313.569,156.493,328.244,137.796,328.205z"/>
	</g>
</g>
<g id="Training_2_" display="none">
	<g id="Brick_wall" display="inline">
		<defs>
			<path id="Cross_Circle_1_" d="M787.066,183.415C911.2,354.272,890.194,586.413,747.473,733.287L543.151,452.063l186.665-135.62
				l-86.958-119.687L456.193,332.375L326.906,154.426L207.22,241.383l129.287,177.949l-186.665,135.62l86.957,119.688
				l186.665-135.62l204.322,281.225C444,910.594,216.727,858.837,92.592,687.979C-46.321,496.782-3.464,228.835,188.306,89.505
				S648.153-7.782,787.066,183.415z"/>
		</defs>
		<clipPath id="Cross_Circle_11_">
			<use xlink:href="#Cross_Circle_1_"  overflow="visible"/>
		</clipPath>
		
			<rect x="-47.853" y="-90.384" clip-path="url(#Cross_Circle_11_)" fill-rule="evenodd" clip-rule="evenodd" fill="#FE6600" width="1238.938" height="995.95"/>
		<path clip-path="url(#Cross_Circle_11_)" fill-rule="evenodd" clip-rule="evenodd" fill="#DA5700" d="M1,29
			c63.438,0.01,126.877,0.019,190.316,0.031c7.656,0.002,7.666,0.012,7.667,7.761c0.003,34.634,0.005,69.267-0.001,103.899
			c-0.001,7.239-0.018,7.259-7.167,7.261C128.21,147.973,64.605,147.985,1,148C1,108.333,1,68.667,1,29z"/>
		<path clip-path="url(#Cross_Circle_11_)" fill-rule="evenodd" clip-rule="evenodd" fill="#DA5700" d="M1,309
			c63.272,0.015,126.544,0.029,189.816,0.045c8.162,0.002,8.167,0.007,8.167,8.263c0.002,34.467,0.004,68.934-0.002,103.399
			c-0.001,7.239-0.019,7.258-7.166,7.26C128.21,427.982,64.605,427.99,1,428C1,388.333,1,348.667,1,309z"/>
		<path clip-path="url(#Cross_Circle_11_)" fill-rule="evenodd" clip-rule="evenodd" fill="#DA5700" d="M1,590
			c63.949-0.012,127.898,0.02,191.847-0.121c4.892-0.011,6.236,1.717,6.216,6.397c-0.147,35.138-0.176,70.277,0.023,105.415
			c0.03,5.249-1.914,6.393-6.739,6.384C128.565,707.951,64.783,707.997,1,708C1,668.667,1,629.333,1,590z"/>
		<path clip-path="url(#Cross_Circle_11_)" fill-rule="evenodd" clip-rule="evenodd" fill="#DA5700" d="M1,170
			c26.624,0.01,53.247,0.016,79.871,0.033c7.106,0.005,7.123,0.022,7.124,7.293c0.006,34.777,0.006,69.554,0,104.331
			c-0.001,7.271-0.017,7.289-7.125,7.295C54.247,288.975,27.624,288.985,1,289C1,249.333,1,209.667,1,170z"/>
		<path clip-path="url(#Cross_Circle_11_)" fill-rule="evenodd" clip-rule="evenodd" fill="#FE8534" d="M1,450
			c26.623,0.034,53.246,0.065,79.869,0.105c7.105,0.011,7.118,0.022,7.12,7.246c0.005,34.943,0.007,69.887-0.002,104.83
			c-0.001,6.694-0.038,6.732-6.617,6.741C54.579,568.958,27.79,568.976,1,569C1,529.333,1,489.667,1,450z"/>
		<path clip-path="url(#Cross_Circle_11_)" fill-rule="evenodd" clip-rule="evenodd" fill="#DA5700" d="M1,731
			c26.965-0.012,53.931,0.075,80.895-0.126c4.926-0.036,6.2,1.784,6.181,6.428c-0.145,35.121-0.173,70.243,0.023,105.363
			c0.029,5.207-1.839,6.449-6.704,6.415C54.598,848.895,27.799,848.997,1,849C1,809.667,1,770.333,1,731z"/>
		<path clip-path="url(#Cross_Circle_11_)" fill-rule="evenodd" clip-rule="evenodd" fill="#FE8534" d="M213.228,288.896
			c-31.16,0-62.319,0.006-93.478-0.005c-6.64-0.003-6.696-0.061-6.698-6.68c-0.01-35.159-0.01-70.317,0-105.476
			c0.002-6.607,0.055-6.659,6.717-6.659c62.319-0.008,124.637-0.008,186.956,0c6.86,0.001,7.146,0.27,7.149,6.929
			c0.015,34.992,0.015,69.983,0,104.975c-0.003,6.655-0.273,6.908-7.17,6.91C275.546,288.903,244.387,288.896,213.228,288.896z"/>
		<path clip-path="url(#Cross_Circle_11_)" fill-rule="evenodd" clip-rule="evenodd" fill="#FE8534" d="M888.289,288.896
			c-31.159,0-62.318,0.006-93.478-0.005c-6.723-0.002-6.773-0.05-6.775-6.603c-0.01-35.325,0.069-70.65-0.091-105.975
			c-0.021-4.742,1.376-6.34,6.229-6.329c62.651,0.133,125.303,0.083,187.955,0.095c6.383,0.001,6.728,0.353,6.73,6.844
			c0.016,35.158,0.018,70.317-0.004,105.476c-0.003,6.092-0.405,6.482-6.589,6.487C950.94,288.906,919.615,288.896,888.289,288.896z
			"/>
		<path clip-path="url(#Cross_Circle_11_)" fill-rule="evenodd" clip-rule="evenodd" fill="#DA5700" d="M213.501,568.97
			c-31.166,0-62.332,0.005-93.498-0.004c-6.957-0.002-6.981-0.025-6.983-6.952c-0.009-34.999-0.009-69.998,0-104.997
			c0.001-6.941,0.025-6.967,6.968-6.968c62.165-0.007,124.33-0.008,186.495,0c7.158,0.001,7.457,0.284,7.46,7.203
			c0.014,34.833,0.014,69.665,0,104.497c-0.003,6.929-0.305,7.214-7.445,7.216C275.499,568.976,244.5,568.97,213.501,568.97z"/>
		<path clip-path="url(#Cross_Circle_11_)" fill-rule="evenodd" clip-rule="evenodd" fill="#DA5700" d="M323.646,147.955
			c-30.98,0-61.961,0.007-92.941-0.006c-6.563-0.002-6.692-0.136-6.694-6.732c-0.011-35.145-0.011-70.289,0-105.434
			c0.002-6.615,0.127-6.746,6.678-6.747c62.293-0.01,124.587-0.01,186.881,0.002c6.266,0.001,6.459,0.197,6.462,6.478
			c0.014,35.312,0.014,70.622,0,105.933c-0.003,6.277-0.215,6.496-6.445,6.499C386.273,147.964,354.96,147.955,323.646,147.955z"/>
		<path clip-path="url(#Cross_Circle_11_)" fill-rule="evenodd" clip-rule="evenodd" fill="#FE8534" d="M547.623,147.896
			c-30.981,0-61.963,0.007-92.945-0.005c-6.63-0.003-6.684-0.061-6.686-6.692c-0.009-35.146-0.01-70.292,0.001-105.438
			c0.001-6.626,0.054-6.683,6.688-6.684c62.297-0.008,124.594,0.046,186.89-0.101c5.034-0.012,6.569,1.483,6.542,6.539
			c-0.191,35.312-0.192,70.625,0,105.937c0.027,5.062-1.516,6.573-6.546,6.542C610.254,147.8,578.938,147.896,547.623,147.896z"/>
		<path clip-path="url(#Cross_Circle_11_)" fill-rule="evenodd" clip-rule="evenodd" fill="#DA5700" d="M771.719,147.955
			c-30.98,0-61.961,0.007-92.941-0.005c-6.647-0.003-6.809-0.155-6.811-6.637c-0.013-35.145-0.012-70.289-0.001-105.434
			c0.002-6.709,0.12-6.842,6.6-6.843c62.294-0.011,124.588,0.04,186.881-0.097c4.938-0.011,6.675,1.344,6.647,6.479
			c-0.19,35.31-0.094,70.621-0.105,105.933c-0.002,6.474-0.136,6.596-6.829,6.598C834.012,147.961,802.865,147.955,771.719,147.955z
			"/>
		<path clip-path="url(#Cross_Circle_11_)" fill-rule="evenodd" clip-rule="evenodd" fill="#DA5700" d="M998.754,147.955
			c-30.979,0-61.96,0.007-92.939-0.005c-6.675-0.002-6.804-0.122-6.806-6.621c-0.012-35.312,0.087-70.622-0.106-105.932
			c-0.028-5.166,1.762-6.466,6.67-6.455c62.293,0.134,124.586,0.084,186.88,0.095c6.358,0.001,6.563,0.195,6.566,6.367
			c0.015,35.477-0.071,70.954,0.097,106.431c0.023,4.924-1.768,6.221-6.422,6.198
			C1061.381,147.882,1030.067,147.955,998.754,147.955z"/>
		<path clip-path="url(#Cross_Circle_11_)" fill-rule="evenodd" clip-rule="evenodd" fill="#DA5700" d="M436.751,288.955
			c-30.98,0-61.96,0.007-92.939-0.005c-6.677-0.002-6.804-0.121-6.806-6.619c-0.012-35.311,0.086-70.621-0.106-105.93
			c-0.028-5.161,1.752-6.47,6.665-6.46c62.292,0.135,124.584,0.135,186.876,0.001c4.914-0.011,6.694,1.302,6.666,6.461
			c-0.191,35.476-0.179,70.953-0.011,106.429c0.023,4.915-1.742,6.226-6.407,6.202C499.376,288.881,468.063,288.955,436.751,288.955
			z"/>
		<path clip-path="url(#Cross_Circle_11_)" fill-rule="evenodd" clip-rule="evenodd" fill="#DA5700" d="M661.194,170.03
			c30.813,0,61.627-0.004,92.44,0.003c7.336,0.001,7.357,0.017,7.358,7.071c0.009,34.978,0.009,69.955,0,104.933
			c-0.002,6.886-0.029,6.914-7.016,6.914c-61.96,0.007-123.919,0.007-185.879,0.001c-7.057-0.001-7.118-0.056-7.12-6.823
			c-0.011-35.144-0.012-70.288,0.001-105.432c0.002-6.52,0.148-6.659,6.775-6.662C598.901,170.023,630.048,170.03,661.194,170.03z"
			/>
		<path clip-path="url(#Cross_Circle_11_)" fill-rule="evenodd" clip-rule="evenodd" fill="#DA5700" d="M323.633,427.97
			c-30.98,0-61.96,0.007-92.94-0.006c-6.553-0.002-6.68-0.133-6.682-6.743c-0.011-35.144-0.011-70.288,0-105.432
			c0.002-6.589,0.144-6.737,6.697-6.738c62.293-0.01,124.585-0.011,186.878,0.002c6.229,0.001,6.442,0.222,6.445,6.499
			c0.014,35.311,0.014,70.621,0,105.931c-0.003,6.281-0.196,6.477-6.461,6.479C386.259,427.978,354.945,427.97,323.633,427.97z"/>
		<path clip-path="url(#Cross_Circle_11_)" fill-rule="evenodd" clip-rule="evenodd" fill="#FE8534" d="M547.867,427.928
			c-31.147,0-62.296-0.099-93.443,0.099c-5.042,0.032-6.563-1.496-6.536-6.546c0.19-35.312,0.191-70.624-0.001-105.936
			c-0.028-5.065,1.525-6.547,6.548-6.535c62.296,0.145,124.592,0.091,186.888,0.099c6.63,0.001,6.684,0.061,6.685,6.693
			c0.01,35.146,0.01,70.291,0,105.437c-0.001,6.614-0.065,6.682-6.695,6.685C610.163,427.935,579.016,427.928,547.867,427.928z"/>
		<path clip-path="url(#Cross_Circle_11_)" fill-rule="evenodd" clip-rule="evenodd" fill="#DA5700" d="M772.015,427.97
			c-30.98,0-61.961,0.005-92.941-0.004c-7.036-0.002-7.105-0.063-7.107-6.838c-0.011-35.145-0.012-70.288,0.001-105.433
			c0.002-6.488,0.164-6.645,6.803-6.646c62.127-0.009,124.254-0.009,186.382-0.001c6.785,0.001,6.838,0.063,6.84,7.091
			c0.008,34.978,0.009,69.955-0.001,104.934c-0.002,6.868-0.029,6.891-7.035,6.893C833.975,427.975,802.994,427.97,772.015,427.97z"
			/>
		<path clip-path="url(#Cross_Circle_11_)" fill-rule="evenodd" clip-rule="evenodd" fill="#FE8534" d="M998.776,427.928
			c-30.816,0-61.632,0.004-92.448-0.002c-7.296-0.002-7.314-0.017-7.315-7.059c-0.007-34.98-0.008-69.961,0.001-104.941
			c0.002-6.797,0.024-6.818,7.058-6.819c61.966-0.006,123.931-0.006,185.896,0c7.079,0.001,7.094,0.023,7.095,7.313
			c0.006,34.647,0.005,69.295,0.001,103.942c-0.001,7.557-0.012,7.564-7.838,7.565
			C1060.408,427.93,1029.593,427.928,998.776,427.928z"/>
		<path clip-path="url(#Cross_Circle_11_)" fill-rule="evenodd" clip-rule="evenodd" fill="#FE8534" d="M661.386,450.104
			c30.983,0,61.966-0.007,92.948,0.006c6.608,0.002,6.65,0.051,6.652,6.722c0.009,35.147,0.009,70.294-0.001,105.441
			c-0.002,6.599-0.051,6.649-6.72,6.65c-62.132,0.008-124.264,0.008-186.396,0.001c-6.907-0.001-6.929-0.026-6.931-6.969
			c-0.008-34.98-0.008-69.961,0-104.941c0.002-6.881,0.025-6.904,6.999-6.906C599.088,450.099,630.237,450.104,661.386,450.104z"/>
		<path clip-path="url(#Cross_Circle_11_)" fill-rule="evenodd" clip-rule="evenodd" fill="#DA5700" d="M887.641,568.97
			c-30.98,0-61.961,0.007-92.941-0.006c-6.559-0.002-6.686-0.133-6.688-6.736c-0.011-35.145-0.011-70.289,0-105.434
			c0.002-6.609,0.129-6.743,6.684-6.744c62.294-0.009,124.588-0.01,186.882,0.002c6.244,0.002,6.453,0.217,6.456,6.489
			c0.014,35.311,0.014,70.621,0,105.933c-0.003,6.284-0.201,6.485-6.451,6.488C950.268,568.978,918.954,568.969,887.641,568.97z"/>
		<path clip-path="url(#Cross_Circle_11_)" fill-rule="evenodd" clip-rule="evenodd" fill="#DA5700" d="M435.371,568.97
			c-30.98,0-61.961,0.007-92.941-0.006c-6.559-0.002-6.686-0.133-6.688-6.736c-0.011-35.145-0.011-70.289,0-105.434
			c0.002-6.609,0.129-6.743,6.684-6.744c62.294-0.009,124.588-0.01,186.882,0.002c6.244,0.002,6.453,0.217,6.456,6.489
			c0.014,35.311,0.014,70.621,0,105.933c-0.003,6.284-0.201,6.485-6.451,6.488C497.998,568.978,466.684,568.969,435.371,568.97z"/>
		<path clip-path="url(#Cross_Circle_11_)" fill-rule="evenodd" clip-rule="evenodd" fill="#FE8534" d="M323.769,707.96
			c-30.979,0.001-61.957,0.006-92.935-0.004c-6.762-0.002-6.794-0.026-6.797-6.566c-0.011-34.976,0.076-69.951-0.098-104.926
			c-0.024-4.916,1.286-6.664,6.448-6.651c62.456,0.154,124.912,0.138,187.368,0.023c4.645-0.009,6.448,1.25,6.425,6.179
			c-0.167,35.308-0.173,70.616,0.005,105.924c0.025,5.018-1.917,6.12-6.483,6.099C386.391,707.891,355.079,707.96,323.769,707.96z"
			/>
		<path clip-path="url(#Cross_Circle_11_)" fill-rule="evenodd" clip-rule="evenodd" fill="#DA5700" d="M547.74,707.99
			c-30.989,0-61.979,0.006-92.968-0.005c-6.646-0.002-6.768-0.117-6.77-6.655c-0.013-34.987-0.014-69.976,0.002-104.963
			c0.003-6.202,0.203-6.396,6.538-6.397c62.312-0.011,124.623-0.011,186.935,0c6.322,0.002,6.516,0.19,6.519,6.417
			c0.015,35.154-0.07,70.31,0.096,105.463c0.022,4.887-1.688,6.246-6.385,6.223C610.385,707.913,579.063,707.989,547.74,707.99z"/>
		<path clip-path="url(#Cross_Circle_11_)" fill-rule="evenodd" clip-rule="evenodd" fill="#DA5700" d="M771.736,707.99
			c-30.989,0-61.979,0.006-92.969-0.005c-6.647-0.003-6.799-0.143-6.801-6.643c-0.013-34.988-0.014-69.977,0.002-104.965
			c0.003-6.189,0.229-6.407,6.545-6.408c62.313-0.011,124.625-0.011,186.938,0c6.331,0.001,6.531,0.195,6.534,6.403
			c0.015,35.155-0.069,70.311,0.095,105.465c0.023,4.874-1.667,6.258-6.376,6.234C834.383,707.913,803.06,707.989,771.736,707.99z"
			/>
		<path clip-path="url(#Cross_Circle_11_)" fill-rule="evenodd" clip-rule="evenodd" fill="#DA5700" d="M998.475,707.99
			c-30.989,0-61.979,0.008-92.969-0.007c-6.324-0.003-6.492-0.166-6.495-6.428c-0.015-34.988,0.068-69.977-0.096-104.964
			c-0.022-4.852,1.188-6.739,6.411-6.727c62.479,0.153,124.958,0.139,187.437,0.019c4.746-0.009,6.37,1.449,6.349,6.277
			c-0.159,35.154-0.077,70.31-0.093,105.465c-0.003,6.155-0.219,6.355-6.575,6.358C1061.12,707.997,1029.798,707.99,998.475,707.99z
			"/>
		<path clip-path="url(#Cross_Circle_11_)" fill-rule="evenodd" clip-rule="evenodd" fill="#DA5700" d="M212.803,848.99
			c-30.989,0-61.978,0.006-92.967-0.005c-6.692-0.002-6.812-0.11-6.814-6.614c-0.012-34.987-0.013-69.975,0.002-104.963
			c0.002-6.247,0.194-6.437,6.5-6.438c62.311-0.012,124.623-0.012,186.934-0.001c6.331,0.001,6.575,0.231,6.578,6.376
			c0.017,35.154-0.066,70.31,0.094,105.463c0.022,4.843-1.626,6.288-6.36,6.264C275.448,848.912,244.125,848.989,212.803,848.99z"/>
		<path clip-path="url(#Cross_Circle_11_)" fill-rule="evenodd" clip-rule="evenodd" fill="#DA5700" d="M436.74,848.99
			c-30.989,0-61.979,0.006-92.968-0.005c-6.647-0.003-6.765-0.114-6.767-6.656c-0.012-34.988-0.014-69.976,0.002-104.964
			c0.003-6.202,0.201-6.395,6.537-6.396c62.313-0.011,124.624-0.011,186.936,0c6.321,0.001,6.516,0.191,6.518,6.419
			c0.016,35.154-0.069,70.309,0.097,105.463c0.022,4.888-1.693,6.244-6.388,6.22C499.386,848.913,468.063,848.989,436.74,848.99z"/>
		<path clip-path="url(#Cross_Circle_11_)" fill-rule="evenodd" clip-rule="evenodd" fill="#FE8534" d="M661.032,848.961
			c-31.146,0-62.292,0.006-93.438-0.006c-6.58-0.003-6.652-0.078-6.654-6.733c-0.01-34.811-0.01-69.62,0-104.43
			c0.002-6.852,0.028-6.876,7.041-6.876c61.958-0.007,123.916-0.007,185.875-0.001c7.113,0.001,7.13,0.021,7.131,7.265
			c0.007,34.643,0.008,69.286-0.001,103.93c-0.002,6.826-0.025,6.846-7.018,6.848C722.99,848.965,692.011,848.961,661.032,848.961z"
			/>
		<path clip-path="url(#Cross_Circle_11_)" fill-rule="evenodd" clip-rule="evenodd" fill="#DA5700" d="M888.303,730.963
			c30.99,0,61.979-0.007,92.97,0.006c6.593,0.003,6.759,0.164,6.761,6.694c0.013,34.822,0.012,69.644,0.001,104.466
			c-0.002,6.72-0.122,6.854-6.587,6.855c-62.313,0.01-124.626,0.01-186.938-0.001c-6.321-0.001-6.492-0.169-6.495-6.431
			c-0.015-34.988-0.015-69.977-0.001-104.965c0.002-6.488,0.142-6.617,6.821-6.619C825.99,730.957,857.146,730.963,888.303,730.963z
			"/>
	</g>
</g>
<g id="Community_1_" display="none">
	<g id="Community" display="inline">
		<defs>
			<path id="Cross_Circle_3_" d="M787.066,183.415C911.2,354.272,890.194,586.413,747.473,733.287L543.151,452.063l186.665-135.62
				l-86.958-119.687L456.193,332.375L326.906,154.426L207.22,241.383l129.287,177.949l-186.665,135.62l86.957,119.688
				l186.665-135.62l204.322,281.225C444,910.594,216.727,858.837,92.592,687.979C-46.321,496.782-3.464,228.835,188.306,89.505
				S648.153-7.782,787.066,183.415z"/>
		</defs>
		<clipPath id="Cross_Circle_12_">
			<use xlink:href="#Cross_Circle_3_"  overflow="visible"/>
		</clipPath>
		<rect x="8.198" y="8.14" clip-path="url(#Cross_Circle_12_)" fill="#2C82C4" width="885.676" height="856.089"/>
		<circle clip-path="url(#Cross_Circle_12_)" fill="#409FD8" cx="468.697" cy="478.404" r="377.801"/>
		<circle clip-path="url(#Cross_Circle_12_)" fill="#7AC7EF" cx="509.73" cy="527.565" r="317.284"/>
	</g>
</g>
<g id="Growth_Groups_1_" display="none">
	<g id="circles" display="inline">
		<defs>
			<path id="Cross_Circle_2_" d="M787.066,183.415C911.2,354.272,890.194,586.413,747.473,733.287L543.151,452.063l186.665-135.62
				l-86.958-119.687L456.193,332.375L326.906,154.426L207.22,241.383l129.287,177.949l-186.665,135.62l86.957,119.688
				l186.665-135.62l204.322,281.225C444,910.594,216.727,858.837,92.592,687.979C-46.321,496.782-3.464,228.835,188.306,89.505
				S648.153-7.782,787.066,183.415z"/>
		</defs>
		<clipPath id="Cross_Circle_13_">
			<use xlink:href="#Cross_Circle_2_"  overflow="visible"/>
		</clipPath>
		<path clip-path="url(#Cross_Circle_13_)" fill-rule="evenodd" clip-rule="evenodd" fill="#F8C12C" d="M1064.094,834.999
			c-583.396,20.516,91.025,6.002-492.37,26.637c-2.283-11.248-5.139-22.354-8.203-33.411c-5.383-19.431-12.408-38.281-20.464-56.729
			c-5.652-12.945-12.064-25.541-18.924-37.91c-6.384-11.51-13.409-22.615-20.796-33.478c-10.953-16.104-22.94-31.44-35.868-46.012
			c-2.886-3.252-2.04-4.602,1.62-5.835c15.989-5.393,31.084-12.693,45.824-20.912c24.025-13.397,45.521-29.982,64.711-49.62
			c4.264-4.364,4.579-4.444,8.038,0.598c20.939,30.534,46.237,56.979,74.807,80.44c22.868,18.777,47.692,34.5,74.183,47.488
			c35.629,17.471,73.053,29.411,112.423,35.206c16.641,2.449,33.349,4.371,50.101,4.316c27.949-0.093,55.905-1.181,83.434-6.848
			c25.31-5.211,50.055-12.265,73.971-22.193c20.63-8.564,40.229-18.946,59.207-30.747c27.168-16.893,51.663-36.994,73.873-59.863
			c21.883-22.529,40.547-47.588,56.331-74.766c12.219-21.037,22.506-43.008,30.615-65.916c8.122-22.949,14.004-46.511,17.583-70.642
			c3-20.229,5.073-40.565,4.834-60.974c-0.169-14.394-0.567-28.778-2.885-43.222c-2.633-16.408-4.911-32.861-8.839-49.009
			c-8.984-36.945-23.384-71.734-42.746-104.428c-10.525-17.771-22.298-34.696-35.572-50.578
			c-14.971-17.911-31.088-34.631-49.07-49.562c-9.604-7.975-19.484-15.563-29.699-22.722c-15.572-10.913-31.992-20.418-49-28.88
			c-15.647-7.786-31.811-14.309-48.323-20.106c-7.68-2.696-15.919-3.709-23.14-7.721c427.178-15.109-157.636-41.85,263.778,29.705"
			/>
		<path clip-path="url(#Cross_Circle_13_)" fill-rule="evenodd" clip-rule="evenodd" fill="#EFA81E" d="M1009.75-22.4
			c7.22,4.012,15.459,5.025,23.14,7.721c16.512,5.798,32.676,12.321,48.323,20.106c17.009,8.462,33.428,17.967,49,28.88
			c10.214,7.159,20.094,14.747,29.699,22.722c17.982,14.93,34.1,31.65,49.07,49.562c13.274,15.882,25.047,32.807,35.572,50.578
			c19.362,32.694,33.762,67.483,42.746,104.428c3.928,16.148,6.206,32.601,8.839,49.009c2.317,14.444,2.716,28.828,2.885,43.222
			c0.239,20.409-1.834,40.746-4.834,60.974c-3.579,24.131-9.461,47.692-17.583,70.642c-8.109,22.908-18.396,44.879-30.615,65.916
			c-15.784,27.178-34.448,52.236-56.331,74.766c-22.21,22.869-46.704,42.971-73.873,59.863
			c-18.979,11.801-38.577,22.183-59.207,30.747c-23.916,9.929-48.661,16.982-73.971,22.193c-27.529,5.667-55.485,6.755-83.434,6.848
			c-16.751,0.055-33.46-1.867-50.101-4.316c-39.37-5.795-76.794-17.735-112.423-35.206c-26.491-12.988-51.315-28.711-74.183-47.488
			c-28.57-23.461-53.868-49.906-74.807-80.44c-3.458-5.042-3.773-4.962-8.038-0.598c-19.191,19.638-40.687,36.223-64.711,49.62
			c-14.739,8.219-29.834,15.52-45.824,20.912c-3.66,1.233-4.506,2.583-1.62,5.835c12.927,14.571,24.915,29.907,35.868,46.012
			c7.387,10.862,14.412,21.968,20.796,33.478c6.859,12.369,13.271,24.965,18.924,37.91c8.057,18.448,15.081,37.299,20.464,56.729
			c3.064,11.058,5.92,22.163,8.203,33.411c-21.653,0.766-43.306,1.531-64.959,2.297c-2.32-16.56-7.434-32.411-12.887-48.098
			c-7.273-20.923-16.354-41.082-27.353-60.373c-18.594-32.613-41.005-62.207-68.353-88.015c-2.759-2.604-5.5-3.794-9.328-3.538
			c-12.63,0.843-25.297,1.123-37.924,0.139c-24.334-1.895-48.107-6.676-71.263-14.471c-21.733-7.316-42.315-17.086-61.686-29.311
			c-23.786-15.013-45.154-32.938-63.623-54.214c-3.007-3.466-6.708-4.659-11.13-4.403c-16.615,0.963-33.281,0.512-49.868,2.601
			c-17.185,2.163-34.18,5.07-50.975,9.317c-12.423,3.141-24.585,7.1-36.801,10.907c-0.684-19.321-1.367-38.644-2.05-57.964
			c11.851-4.482,24.167-7.504,36.501-10.01c23.082-4.688,46.293-8.909,69.937-9.74c2.92-0.104,3.581-1.062,2.063-3.607
			c-3.249-5.453-5.462-11.392-7.862-17.236c-12.026-29.279-19.731-59.571-21.245-91.299c-0.191-3.99-0.297-7.982-0.443-11.975
			c-0.071-1.946-0.411-4.091-2.874-3.772c-7.664,0.994-15.103-1.265-22.66-1.265c-6.162-0.001-12.272-0.427-18.366-1.128
			c-13.518-1.554-27.021-3.239-40.53-4.87c-0.896-25.317-1.791-50.635-2.687-75.953c1.981,0.179,4.006,0.154,5.937,0.568
			c22.198,4.764,44.731,7.175,67.344,7.57c29.342,0.513,58.557-2.015,87.301-8.269c38.656-8.412,75.19-22.404,109.556-42.115
			c17.372-9.964,33.846-21.208,49.366-33.78c20.222-16.38,38.799-34.509,55.105-54.854c12.081-15.073,23.437-30.672,33.207-47.372
			c14.343-24.513,26.053-50.235,34.653-77.298c4.43-13.942,8.79-27.961,10.274-42.64c22.986-0.813,45.971-1.626,68.957-2.439
			c-2.669,20.136-7.056,39.912-12.405,59.492c-4.389,16.062-10.002,31.71-16.353,47.067c-1.787,4.32-1.209,6.255,2.938,8.045
			c27.589,11.907,52.304,28.312,74.61,48.366c2.847,2.56,4.608,1.937,6.3-0.875c1.369-2.274,2.415-4.755,3.883-6.958
			c9.588-14.378,18.917-28.917,30.204-42.116c12.559-14.685,25.475-29.035,39.789-41.988c17.635-15.961,36.569-30.315,56.905-42.727
			c14.184-8.657,28.684-16.764,43.944-23.393c11.275-4.898,22.675-9.507,34.02-14.246C857.178-17.004,933.464-19.702,1009.75-22.4z
			 M915.631,561.308c118.875-3.816,211.169-102.959,206.658-221.894c-4.525-119.317-102.017-210.093-221.051-206.499
			c-120.211,3.63-210.754,103.269-207.61,220.913C696.788,472.002,798.227,566.932,915.631,561.308z M640.52,262.227
			c0.623-0.87,1.002-1.206,1.141-1.623c11.06-33.189,27.412-63.396,49.717-90.478c22.286-27.059,48.442-49.368,78.919-66.6
			c27.938-15.795,57.729-26.343,89.395-31.888c27.438-4.804,54.932-5.561,82.489-2.213c30.301,3.681,59.267,12.159,86.811,25.509
			c28.583,13.852,54.093,31.847,76.565,54.34c21.137,21.157,38.454,44.961,52.088,71.543c16.63,32.426,26.133,66.902,29.332,103.076
			c1.612,18.248,1.138,36.55-0.849,54.829c-4.017,36.949-15.293,71.595-33.146,104.021c-17.866,32.444-41.57,60.149-70.52,83.315
			c-25.196,20.163-52.985,35.736-83.539,46.055c-29.823,10.073-60.462,14.943-92.116,14.85
			c-27.938-0.083-54.995-4.236-81.597-12.258c-37.22-11.222-70.407-29.947-99.825-55.13c-31.026-26.562-55.105-58.564-72.07-95.816
			c-0.586-1.287-0.678-3.467-2.438-3.407c-2.092,0.07-1.963,2.395-2.427,3.882c-5.728,18.371-13.657,35.784-23.099,52.504
			c-1.773,3.14-1.401,5.373,0.439,8.189c8.207,12.561,17.013,24.65,26.644,36.171c19.565,23.4,41.88,43.833,67,61.014
			c23.291,15.93,48.279,28.704,74.88,38.467c35.727,13.112,72.635,19.255,110.479,19.993c22.502,0.438,44.874-1.951,66.988-6.21
			c47.671-9.179,91.184-28.193,130.575-56.425c21.291-15.258,40.468-32.904,57.581-52.881c21.39-24.968,38.878-52.242,52.345-82.233
			c18.184-40.501,27.736-82.96,28.745-127.212c0.538-23.633-0.921-47.298-5.579-70.57c-7.371-36.832-19.901-71.735-38.979-104.274
			c-20.339-34.692-45.566-65.111-76.728-90.568c-25.017-20.436-52.273-37.083-82.037-49.801
			c-38.311-16.372-78.318-25.061-119.774-26.212c-23.931-0.665-47.94,0.739-71.576,5.466c-35.67,7.133-69.578,18.97-101.331,36.963
			c-29.19,16.541-55.523,36.701-78.616,60.976c-23.096,24.278-41.869,51.674-57.152,81.488c-1.637,3.193-1.608,5.672,0.598,8.671
			c9.898,13.461,18.097,27.949,25.253,43.034C636.859,254.477,638.604,258.176,640.52,262.227z M377.897,527.278
			c4.162-0.146,8.338-0.13,12.483-0.487c4.132-0.354,8.287-0.82,12.337-1.687c38.335-8.203,70.144-27.051,94.541-58.033
			c25.641-32.563,36.684-69.433,33.689-110.765c-1.867-25.76-9.25-49.55-22.937-71.466c-20.147-32.261-48.071-54.712-83.939-67.366
			c-2.824-0.997-4.404-0.472-6.403,1.755c-22.145,24.654-45.045,48.447-71.852,68.302c-19.542,14.473-39.701,27.884-61.159,39.208
			c-21.772,11.491-44.199,21.657-67.846,28.807c-2.872,0.869-4.078,2.189-4.058,5.234c0.072,11.274,0.219,22.503,2.13,33.689
			c6.98,40.872,26.752,74.161,59.354,99.619C304.63,517.822,339.204,529.152,377.897,527.278z M580.419,365.154
			c0.666,6.163-0.167,16.808-1.468,27.368c-6.178,50.161-27.549,92.699-64.303,127.507c-24.683,23.376-53.464,39.513-86.046,48.809
			c-22.418,6.396-45.331,8.504-68.665,7.262c-25.964-1.382-50.738-7.457-74.223-18.271c-27.866-12.832-52.082-30.775-71.975-54.327
			c-20.42-24.174-34.941-51.435-42.896-82.09c-3.938-15.178-6.616-30.588-6.557-46.335c0.018-4.658-1.532-5.438-6.056-4.55
			c-9.773,1.92-19.684,3.191-29.578,4.403c-3.138,0.385-4.406,1.379-4.263,4.612c0.229,5.164,0.958,10.262,1.453,15.389
			c2.042,21.19,6.832,41.775,14.554,61.521c16.014,40.941,40.663,75.745,74.905,103.688c24.587,20.064,51.891,34.903,82.067,44.457
			c36.606,11.589,73.883,14.508,111.944,8.798c22.768-3.415,44.562-9.856,65.387-19.39c35.378-16.196,65.441-39.358,90.058-69.657
			c20.455-25.179,35.434-53.271,44.707-84.186c10.651-35.506,13.591-71.737,7.739-108.599c-4.16-26.207-11.644-51.24-23.753-74.875
			c-16.168-31.558-37.789-58.655-65.426-80.984c-16.69-13.484-34.726-24.64-54.287-33.419c-2.958-1.328-4.25-0.81-5.804,2.01
			c-5.059,9.181-10.35,18.24-15.792,27.199c-1.824,3.005-1.209,4.029,1.907,5.371c28.253,12.162,52.882,29.556,73.257,52.599
			C560.396,266.879,578.078,310.642,580.419,365.154z"/>
		<path clip-path="url(#Cross_Circle_13_)" fill-rule="evenodd" clip-rule="evenodd" fill="#F8C12C" d="M368.852,868.811
			c-116.145,4.108-232.291,8.202-348.433,12.397c-3.322,0.121-4.492-0.172-4.615-4.058c-1.533-48.594-3.315-97.18-5.034-145.768
			c15.498-9.184,31.786-16.639,48.937-22.151c16.024-5.15,32.375-8.562,49.134-10.628c22.34-2.755,44.518-1.816,66.572,1.524
			c16.598,2.514,32.706,7.297,48.474,13.298c25.772,9.811,48.998,23.822,69.914,41.603c15.763,13.401,29.657,28.576,41.566,45.623
			C350.064,821.688,361.6,844.169,368.852,868.811z"/>
		<path clip-path="url(#Cross_Circle_13_)" fill-rule="evenodd" clip-rule="evenodd" fill="#F8C12C" d="M-9.661,153.744
			c-1.602-45.305-3.156-90.612-4.905-135.912c-0.132-3.422,0.529-4.121,3.951-4.238C95.656,9.953,201.922,6.172,308.188,2.414
			c-2.503,6.512-4.752,13.136-7.559,19.515c-7.318,16.629-16.5,32.196-27.171,46.915c-13.277,18.312-28.835,34.389-46.742,48.166
			c-20.021,15.401-41.758,27.646-65.511,36.513c-20.249,7.557-41.102,12.252-62.47,14.239c-23.428,2.179-46.799,0.869-69.985-3.749
			C15.696,161.413,3.221,156.861-9.661,153.744z"/>
		<path clip-path="url(#Cross_Circle_13_)" fill-rule="evenodd" clip-rule="evenodd" fill="#EFA81E" d="M368.852,868.811
			c-7.251-24.642-18.788-47.123-33.485-68.159c-11.909-17.047-25.803-32.222-41.566-45.623
			c-20.916-17.78-44.141-31.792-69.914-41.603c-15.768-6.001-31.875-10.784-48.474-13.298c-22.055-3.341-44.232-4.279-66.572-1.524
			c-16.76,2.066-33.11,5.478-49.134,10.628c-17.151,5.513-33.439,12.968-48.937,22.151c-0.966-27.316-1.932-54.633-2.898-81.949
			c30.306-13.627,62.117-22.048,95.078-25.171c37.153-3.52,74.106-1.528,110.488,7.813c34.638,8.893,66.979,22.893,96.876,42.503
			c19.818,12.999,38.015,27.968,54.518,45.001c11.485,11.854,22.017,24.51,31.436,38.029c16.429,23.581,29.948,48.743,39.422,75.943
			c3.71,10.653,7.807,21.232,9.114,32.573C419.487,867.02,394.169,867.915,368.852,868.811z"/>
		<path clip-path="url(#Cross_Circle_13_)" fill-rule="evenodd" clip-rule="evenodd" fill="#F7DD2E" d="M448.101-2.535
			c-1.485,14.679-5.845,28.698-10.274,42.64c-8.6,27.063-20.31,52.785-34.653,77.298c-9.77,16.7-21.125,32.298-33.207,47.372
			c-16.306,20.345-34.883,38.474-55.105,54.854c-15.521,12.571-31.994,23.816-49.366,33.78
			c-34.366,19.71-70.9,33.703-109.556,42.115c-28.744,6.254-57.959,8.782-87.301,8.269c-22.612-0.395-45.146-2.806-67.344-7.57
			c-1.931-0.414-3.955-0.389-5.937-0.568c-0.742-20.987-1.484-41.974-2.227-62.96c8.137,1.696,16.229,3.658,24.419,5.039
			c27.283,4.6,54.645,6.703,82.391,4.428c19.147-1.57,37.998-4.423,56.526-9.164c36.292-9.285,69.864-24.695,100.747-45.967
			c15.257-10.51,29.586-22.14,42.675-35.221c26.217-26.201,47.965-55.628,63.857-89.265c9.56-20.234,17.521-41.002,22.394-62.888
			C406.794-1.074,427.447-1.804,448.101-2.535z"/>
		<path clip-path="url(#Cross_Circle_13_)" fill-rule="evenodd" clip-rule="evenodd" fill="#EFA81E" d="M386.14-0.343
			c-4.873,21.886-12.834,42.654-22.394,62.888c-15.892,33.637-37.64,63.063-63.857,89.265
			c-13.089,13.081-27.417,24.711-42.675,35.221c-30.883,21.272-64.455,36.682-100.747,45.967
			c-18.529,4.741-37.379,7.594-56.526,9.164c-27.746,2.275-55.107,0.172-82.391-4.428c-8.19-1.38-16.282-3.343-24.419-5.039
			c-0.931-26.316-1.862-52.634-2.793-78.951c12.882,3.118,25.357,7.669,38.41,10.268c23.187,4.618,46.558,5.928,69.985,3.749
			c21.368-1.987,42.222-6.682,62.47-14.239c23.753-8.866,45.491-21.112,65.511-36.513c17.907-13.776,33.465-29.854,46.742-48.166
			c10.672-14.718,19.854-30.285,27.171-46.915c2.807-6.379,5.056-13.002,7.559-19.515C334.172,1.495,360.156,0.576,386.14-0.343z"/>
		<path clip-path="url(#Cross_Circle_13_)" fill-rule="evenodd" clip-rule="evenodd" fill="#F7DD2E" d="M444.804,866.125
			c-1.307-11.341-5.404-21.92-9.114-32.573c-9.474-27.2-22.993-52.362-39.422-75.943c-9.419-13.52-19.951-26.175-31.436-38.029
			c-16.503-17.033-34.7-32.002-54.518-45.001c-29.898-19.61-62.239-33.61-96.876-42.503c-36.382-9.341-73.335-11.332-110.488-7.813
			c-32.961,3.123-64.771,11.544-95.078,25.171c-0.766-21.653-1.532-43.306-2.297-64.959c12.216-3.808,24.378-7.767,36.801-10.907
			c16.795-4.247,33.79-7.154,50.975-9.317c16.587-2.089,33.253-1.638,49.868-2.601c4.422-0.256,8.123,0.938,11.13,4.403
			c18.469,21.275,39.837,39.201,63.623,54.214c19.371,12.225,39.953,21.994,61.686,29.311c23.156,7.795,46.929,12.576,71.263,14.471
			c12.626,0.984,25.293,0.704,37.924-0.139c3.828-0.256,6.569,0.935,9.328,3.538c27.348,25.808,49.759,55.401,68.353,88.015
			c10.999,19.291,20.08,39.45,27.353,60.373c5.454,15.687,10.567,31.538,12.887,48.098
			C486.111,864.663,465.458,865.394,444.804,866.125z"/>
		<path clip-path="url(#Cross_Circle_13_)" fill-rule="evenodd" clip-rule="evenodd" fill="#F8C12C" d="M780.893-14.306
			c-11.345,4.738-22.745,9.348-34.02,14.246c-15.26,6.629-29.76,14.736-43.944,23.393c-20.336,12.411-39.27,26.765-56.905,42.727
			c-14.313,12.954-27.229,27.304-39.789,41.988c-11.288,13.198-20.616,27.737-30.204,42.116c-1.469,2.203-2.515,4.684-3.883,6.958
			c-1.692,2.813-3.453,3.435-6.3,0.875c-22.306-20.054-47.021-36.459-74.61-48.366c-4.147-1.79-4.725-3.725-2.938-8.045
			c6.351-15.357,11.963-31.006,16.353-47.067c5.349-19.58,9.736-39.356,12.405-59.492C605.003-8.084,692.948-11.195,780.893-14.306z
			"/>
		<path clip-path="url(#Cross_Circle_13_)" fill-rule="evenodd" clip-rule="evenodd" fill="#F8C12C" d="M-1.955,371.607
			c13.509,1.631,27.012,3.316,40.53,4.87c6.094,0.701,12.204,1.127,18.366,1.128c7.557,0,14.996,2.259,22.66,1.265
			c2.462-0.319,2.802,1.826,2.874,3.772c0.146,3.993,0.252,7.985,0.443,11.975c1.514,31.728,9.218,62.02,21.245,91.299
			c2.4,5.845,4.613,11.783,7.862,17.236c1.517,2.546,0.857,3.504-2.063,3.607c-23.643,0.831-46.855,5.052-69.937,9.74
			c-12.333,2.506-24.65,5.527-36.501,10.01C1.697,474.876-0.129,423.242-1.955,371.607z"/>
		<path clip-path="url(#Cross_Circle_13_)" fill-rule="evenodd" clip-rule="evenodd" fill="#F8C12C" d="M915.631,561.308
			c-117.405,5.624-218.843-89.306-222.003-207.48c-3.145-117.644,87.398-217.283,207.61-220.913
			c119.034-3.594,216.526,87.182,221.051,206.499C1126.801,458.349,1034.506,557.491,915.631,561.308z"/>
		<path clip-path="url(#Cross_Circle_13_)" fill-rule="evenodd" clip-rule="evenodd" fill="#F7DD2E" d="M640.52,262.227
			c-1.916-4.051-3.66-7.75-5.413-11.445c-7.156-15.084-15.355-29.572-25.253-43.034c-2.206-2.999-2.235-5.478-0.598-8.671
			c15.283-29.813,34.057-57.21,57.152-81.488c23.092-24.275,49.425-44.435,78.616-60.976c31.753-17.993,65.661-29.83,101.331-36.963
			c23.636-4.727,47.645-6.131,71.576-5.466c41.456,1.151,81.464,9.84,119.774,26.212c29.763,12.719,57.02,29.365,82.037,49.801
			c31.161,25.457,56.389,55.875,76.728,90.568c19.077,32.54,31.607,67.443,38.979,104.274c4.658,23.272,6.117,46.937,5.579,70.57
			c-1.009,44.252-10.562,86.711-28.745,127.212c-13.467,29.991-30.955,57.266-52.345,82.233
			c-17.113,19.977-36.29,37.623-57.581,52.881c-39.391,28.231-82.903,47.246-130.575,56.425c-22.114,4.259-44.486,6.648-66.988,6.21
			c-37.844-0.738-74.752-6.881-110.479-19.993c-26.601-9.763-51.589-22.537-74.88-38.467c-25.119-17.181-47.435-37.613-67-61.014
			c-9.631-11.521-18.437-23.61-26.644-36.171c-1.84-2.816-2.212-5.05-0.439-8.189c9.442-16.72,17.372-34.133,23.099-52.504
			c0.463-1.487,0.335-3.812,2.427-3.882c1.761-0.06,1.853,2.12,2.438,3.407c16.965,37.252,41.044,69.255,72.07,95.816
			c29.417,25.183,62.605,43.908,99.825,55.13c26.602,8.021,53.659,12.175,81.597,12.258c31.654,0.094,62.293-4.776,92.116-14.85
			c30.554-10.318,58.343-25.892,83.539-46.055c28.95-23.166,52.654-50.871,70.52-83.315c17.853-32.426,29.129-67.072,33.146-104.021
			c1.986-18.279,2.461-36.581,0.849-54.829c-3.199-36.173-12.702-70.65-29.332-103.076c-13.634-26.583-30.951-50.387-52.088-71.543
			c-22.472-22.493-47.982-40.488-76.565-54.34c-27.544-13.351-56.51-21.828-86.811-25.509c-27.558-3.347-55.052-2.59-82.489,2.213
			c-31.666,5.544-61.457,16.092-89.395,31.888c-30.477,17.231-56.634,39.541-78.919,66.6
			c-22.305,27.082-38.657,57.289-49.717,90.478C641.521,261.021,641.143,261.356,640.52,262.227z"/>
		<path clip-path="url(#Cross_Circle_13_)" fill-rule="evenodd" clip-rule="evenodd" fill="#F8C12C" d="M377.897,527.278
			c-38.693,1.874-73.267-9.456-103.66-33.19c-32.602-25.458-52.373-58.747-59.354-99.619c-1.911-11.186-2.058-22.415-2.13-33.689
			c-0.02-3.044,1.187-4.365,4.058-5.234c23.647-7.15,46.074-17.316,67.846-28.807c21.458-11.324,41.617-24.735,61.159-39.208
			c26.807-19.854,49.707-43.647,71.852-68.302c1.999-2.227,3.579-2.751,6.403-1.755c35.868,12.654,63.792,35.105,83.939,67.366
			c13.687,21.916,21.07,45.706,22.937,71.466c2.994,41.332-8.048,78.201-33.689,110.765c-24.397,30.982-56.206,49.83-94.541,58.033
			c-4.05,0.866-8.205,1.333-12.337,1.687C386.236,527.148,382.06,527.132,377.897,527.278z"/>
		<path clip-path="url(#Cross_Circle_13_)" fill-rule="evenodd" clip-rule="evenodd" fill="#F7DD2E" d="M580.419,365.154
			c-2.341-54.513-20.023-98.275-53.112-135.692c-20.375-23.042-45.004-40.437-73.257-52.599c-3.117-1.342-3.731-2.366-1.907-5.371
			c5.442-8.959,10.733-18.019,15.792-27.199c1.554-2.82,2.846-3.338,5.804-2.01c19.562,8.78,37.597,19.936,54.287,33.419
			c27.638,22.329,49.258,49.426,65.426,80.984c12.109,23.635,19.593,48.668,23.753,74.875c5.852,36.861,2.912,73.092-7.739,108.599
			c-9.272,30.915-24.251,59.007-44.707,84.186c-24.616,30.299-54.68,53.461-90.058,69.657c-20.825,9.533-42.619,15.975-65.387,19.39
			c-38.062,5.71-75.338,2.791-111.944-8.798c-30.176-9.554-57.48-24.393-82.067-44.457c-34.242-27.942-58.892-62.746-74.905-103.688
			c-7.723-19.745-12.512-40.33-14.554-61.521c-0.495-5.127-1.224-10.225-1.453-15.389c-0.143-3.232,1.125-4.227,4.263-4.612
			c9.894-1.211,19.805-2.483,29.578-4.403c4.524-0.889,6.074-0.108,6.056,4.55c-0.06,15.747,2.619,31.157,6.557,46.335
			c7.955,30.655,22.476,57.916,42.896,82.09c19.894,23.552,44.109,41.495,71.975,54.327c23.484,10.814,48.258,16.89,74.223,18.271
			c23.334,1.242,46.247-0.866,68.665-7.262c32.583-9.296,61.364-25.433,86.046-48.809c36.753-34.808,58.125-77.346,64.303-127.507
			C580.251,381.962,581.084,371.317,580.419,365.154z"/>
	</g>
</g>
<g id="Media_Ninja">
	<g id="Face">
		<defs>
			<ellipse id="SVGID_1_" cx="439.831" cy="435.7" rx="428.795" ry="428.396"/>
		</defs>
		<clipPath id="SVGID_2_">
			<use xlink:href="#SVGID_1_"  overflow="visible"/>
		</clipPath>
		
			<rect id="skin" x="-104" y="194" clip-path="url(#SVGID_2_)" fill="#605813" stroke="#000000" stroke-miterlimit="10" width="1052" height="268"/>
		<g id="left_eye" clip-path="url(#SVGID_2_)">
			<defs>
				<path id="SVGID_3_" d="M368.898,359.053c-139.066,112.346-267.24-15.591-267.24-15.591
					C182.295,304.637,368.898,359.053,368.898,359.053"/>
			</defs>
			<use xlink:href="#SVGID_3_"  overflow="visible" fill="#BFBFBF"/>
			<clipPath id="SVGID_4_">
				<use xlink:href="#SVGID_3_"  overflow="visible"/>
			</clipPath>
			<radialGradient id="SVGID_5_" cx="237.6685" cy="365.2334" r="60.4307" gradientUnits="userSpaceOnUse">
				<stop  offset="0" style="stop-color:#008687"/>
				<stop  offset="1" style="stop-color:#000060"/>
			</radialGradient>
			
				<ellipse clip-path="url(#SVGID_4_)" fill="url(#SVGID_5_)" stroke="#000000" stroke-miterlimit="10" cx="237.668" cy="365.233" rx="61.334" ry="59.513"/>
			<ellipse clip-path="url(#SVGID_4_)" cx="237.669" cy="365.234" rx="14.574" ry="25.505"/>
			<use xlink:href="#SVGID_3_"  overflow="visible" fill="none" stroke="#000000" stroke-miterlimit="10"/>
		</g>
		<g id="right_eye" clip-path="url(#SVGID_2_)">
			<defs>
				<path id="XMLID_1_" d="M509.811,359.053c140.418,112.345,269.84-15.59,269.84-15.59
					C698.229,304.637,509.811,359.053,509.811,359.053"/>
			</defs>
			<use xlink:href="#XMLID_1_"  overflow="visible" fill="#BFBFBF"/>
			<clipPath id="XMLID_3_">
				<use xlink:href="#XMLID_1_"  overflow="visible"/>
			</clipPath>
			
				<radialGradient id="SVGID_6_" cx="150.1104" cy="365.2324" r="60.4312" gradientTransform="matrix(-1.0097 0 0 1 792.9642 0)" gradientUnits="userSpaceOnUse">
				<stop  offset="0" style="stop-color:#008687"/>
				<stop  offset="1" style="stop-color:#000060"/>
			</radialGradient>
			
				<ellipse clip-path="url(#XMLID_3_)" fill="url(#SVGID_6_)" stroke="#000000" stroke-miterlimit="10" cx="641.398" cy="365.232" rx="61.931" ry="59.512"/>
			<ellipse clip-path="url(#XMLID_3_)" cx="641.398" cy="365.234" rx="14.716" ry="25.505"/>
			<use xlink:href="#XMLID_1_"  overflow="visible" fill="none" stroke="#000000" stroke-miterlimit="10"/>
		</g>
		
			<path clip-path="url(#SVGID_2_)" fill-rule="evenodd" clip-rule="evenodd" stroke="#545454" stroke-width="4" stroke-miterlimit="10" d="
			M994.888,275.278c0,0-237.057,141.293-555.057,143.443c-245.995,1.663-591.057-143.443-591.057-143.443V874H994.888V275.278z"/>
		
			<path clip-path="url(#SVGID_2_)" fill-rule="evenodd" clip-rule="evenodd" stroke="#545454" stroke-width="4" stroke-miterlimit="10" d="
			M961.057,383.032c0,0-367.442-61.607-521.208-61.607c-132.763,0-624.906,61.607-624.906,61.607V0H961.057V383.032z"/>
		<path clip-path="url(#SVGID_2_)" stroke="#545454" stroke-width="4" stroke-miterlimit="10" d="M995.804,357.499
			c0,0-139.179,231.336-585.974,231.141C-17.589,588.453-84,494-84,494l64.649,74.084c0,0,145.306,135.23,421.095,173.767
			c337.77,47.197,528.053-51.006,528.053-51.006"/>
		<path clip-path="url(#SVGID_2_)" stroke="#545454" stroke-width="4" stroke-miterlimit="10" d="M-128.316,131.892
			c0,0,131.899-84.204,538.39,24.301c412.962,110.232,612.169,224.463,612.169,224.463l95.237-284.555
			c0,0-392.117-151.954-663.983-168.755C143.559-91.807-144.018,119.069-144.018,119.069"/>
		<g id="cross" clip-path="url(#SVGID_2_)">
			<g>
				<path fill="#212121" stroke="#545454" stroke-width="4" stroke-miterlimit="10" d="M671.636,469.781
					c-38.815-36.431-85.946-72.34-137.183-106.755C706.114,234.497,956,222,956,222s-258.646-107.262-524.361,76.756
					C214.813,171.75-24,78-24,78s165.364,109.221,357.603,297.806c-227.647,173.208-487.25,215.997-487.25,215.997
					s384.887,1.233,573.563-127.53c29.578,31.705,59.302,65.095,88.703,100.075c144.961,172.467,224.949,342.65,224.949,342.65
					l219.952-153.904C953.519,753.094,862.334,648.768,671.636,469.781z"/>
			</g>
		</g>
	</g>
	<g id="text_ninja_cross">
		<defs>
			<ellipse id="SVGID_7_" cx="1554.579" cy="203.451" rx="122.292" ry="138.124"/>
		</defs>
		<clipPath id="SVGID_8_">
			<use xlink:href="#SVGID_7_"  overflow="visible"/>
		</clipPath>
		<path clip-path="url(#SVGID_8_)" fill="#F0C61D" d="M1422.294,88.121c0,0,79.388,59.275,151.903,156.809
			c41.343,55.607,64.154,110.478,64.154,110.478l62.73-49.622c0,0-26.006-33.637-80.393-91.346
			C1558.686,148.649,1422.294,88.121,1422.294,88.121"/>
		<path clip-path="url(#SVGID_8_)" fill="#EA8A23" d="M1385.319,253.782c0,0,133.63,0.484,178.286-55.378
			c46.922-58.695,138.185-63.854,138.185-63.854s-84.418-39.583-165.415,38.579C1468.939,238.203,1385.319,253.782,1385.319,253.782
			"/>
	</g>
	<path id="Cross_Circle_7_" fill-rule="evenodd" clip-rule="evenodd" fill="none" d="M787.066,183.415
		C911.2,354.272,890.193,586.413,747.473,733.287L543.151,452.063l186.665-135.62l-86.958-119.687l-186.665,135.62L326.906,154.426
		L207.22,241.383l129.287,177.949l-186.665,135.62l86.957,119.688l186.665-135.62l204.322,281.225
		C444,910.594,216.727,858.837,92.592,687.979C-46.321,496.782-3.464,228.835,188.306,89.505S648.153-7.782,787.066,183.415z"/>
</g>
</svg>
